<?xml version="1.0" encoding="UTF-8"?>
<svg xmlns="http://www.w3.org/2000/svg" xmlns:xlink="http://www.w3.org/1999/xlink" width="200px" height="200px" viewBox="0 0 200 200" version="1.1">
<g id="surface1">
<path style=" stroke:none;fill-rule:nonzero;fill:rgb(100%,100%,100%);fill-opacity:1;" d="M 111.109375 200.117188 C 74.074219 200.117188 37.097656 200.117188 0.117188 200.117188 C 0.117188 133.453125 0.117188 66.785156 0.117188 0.117188 C 66.785156 0.117188 133.453125 0.117188 200.117188 0.117188 C 200.117188 66.785156 200.117188 133.453125 200.117188 200.117188 C 170.46875 200.117188 140.820312 200.117188 111.109375 200.117188 M 7.332031 95.855469 C 7.332031 97.3125 7.328125 98.769531 7.328125 100.226562 C 7.324219 111.140625 7.324219 122.054688 7.238281 133.027344 C 7.226562 133.183594 7.210938 133.339844 7.210938 133.496094 C 7.210938 150.242188 7.210938 166.988281 7.210938 183.730469 C 7.210938 183.902344 7.230469 184.074219 7.246094 184.277344 C 7.515625 184.277344 7.75 184.277344 7.984375 184.277344 C 42.554688 184.277344 77.128906 184.277344 111.703125 184.277344 C 111.941406 184.277344 112.175781 184.265625 112.523438 184.277344 C 123.78125 184.277344 135.042969 184.273438 146.304688 184.292969 C 146.742188 184.292969 146.929688 184.109375 147.121094 183.78125 C 153.796875 172.238281 160.484375 160.703125 167.164062 149.164062 C 167.257812 149 167.300781 148.808594 167.417969 148.5625 C 168.945312 145.902344 170.480469 143.246094 172.003906 140.585938 C 174.089844 136.933594 176.171875 133.28125 178.25 129.628906 C 178.941406 128.417969 179.617188 127.203125 180.3125 126 C 181.558594 123.851562 182.816406 121.707031 184.070312 119.566406 C 184.796875 118.324219 185.546875 117.097656 186.261719 115.851562 C 186.851562 114.832031 187.386719 113.78125 187.976562 112.761719 C 188.835938 111.285156 189.734375 109.828125 190.597656 108.351562 C 191.640625 106.570312 192.625 104.757812 193.710938 103.003906 C 194.351562 101.96875 194.8125 101.019531 193.777344 99.980469 C 193.660156 99.863281 193.617188 99.675781 193.527344 99.527344 C 192.574219 97.917969 191.605469 96.320312 190.667969 94.707031 C 189.621094 92.90625 188.609375 91.085938 187.570312 89.28125 C 186.480469 87.390625 185.375 85.507812 184.277344 83.617188 C 183.011719 81.433594 181.746094 79.25 180.46875 76.984375 C 180.027344 76.269531 179.582031 75.558594 179.148438 74.839844 C 178.261719 73.359375 177.367188 71.882812 176.503906 70.390625 C 175.660156 68.933594 174.859375 67.453125 174.023438 65.996094 C 173.347656 64.8125 172.640625 63.648438 171.960938 62.464844 C 170.980469 60.75 170.019531 59.023438 169.039062 57.308594 C 168.652344 56.628906 168.226562 55.96875 167.835938 55.292969 C 167.277344 54.324219 166.742188 53.34375 166.183594 52.375 C 165.53125 51.242188 164.855469 50.128906 164.214844 48.992188 C 163.90625 48.445312 163.691406 47.84375 163.375 47.304688 C 162.855469 46.40625 162.269531 45.542969 161.742188 44.648438 C 161.285156 43.859375 160.867188 43.046875 160.402344 42.175781 C 159.921875 41.398438 159.429688 40.628906 158.960938 39.847656 C 158.011719 38.261719 157.054688 36.679688 156.140625 35.074219 C 155.003906 33.082031 153.917969 31.058594 152.785156 29.066406 C 151.886719 27.484375 150.941406 25.929688 150.027344 24.359375 C 149.152344 22.855469 148.28125 21.347656 147.425781 19.832031 C 146.941406 18.980469 146.285156 18.644531 145.265625 18.664062 C 141.328125 18.734375 137.390625 18.710938 133.453125 18.722656 C 125.773438 18.746094 118.09375 18.769531 110.347656 18.71875 C 110.09375 18.703125 109.839844 18.679688 109.585938 18.679688 C 89.820312 18.675781 70.054688 18.675781 50.289062 18.675781 C 50.03125 18.675781 49.777344 18.6875 49.414062 18.679688 C 35.4375 18.679688 21.460938 18.679688 7.449219 18.679688 C 7.449219 36.246094 7.449219 53.75 7.359375 71.316406 C 7.351562 71.550781 7.328125 71.785156 7.328125 72.019531 C 7.328125 78.925781 7.328125 85.832031 7.328125 92.734375 C 7.328125 93.738281 7.339844 94.742188 7.332031 95.855469 Z M 7.332031 95.855469 "/>
<path style=" stroke:none;fill-rule:nonzero;fill:rgb(100%,86.666667%,0%);fill-opacity:1;" d="M 112.410156 184.257812 C 112.175781 184.265625 111.941406 184.277344 111.703125 184.277344 C 77.128906 184.277344 42.554688 184.277344 7.984375 184.277344 C 7.75 184.277344 7.515625 184.277344 7.246094 184.277344 C 7.230469 184.074219 7.210938 183.902344 7.210938 183.730469 C 7.210938 166.988281 7.210938 150.242188 7.210938 133.496094 C 7.210938 133.339844 7.226562 133.183594 7.3125 133.035156 C 7.601562 133.058594 7.816406 133.09375 8.027344 133.09375 C 18.074219 133.097656 28.117188 133.097656 38.167969 133.152344 C 38.175781 139.894531 38.175781 146.585938 38.175781 153.308594 C 38.507812 153.308594 38.761719 153.308594 39.015625 153.308594 C 63.226562 153.308594 87.433594 153.308594 111.644531 153.308594 C 111.902344 153.308594 112.15625 153.324219 112.410156 153.382812 C 112.410156 163.710938 112.410156 173.984375 112.410156 184.257812 Z M 112.410156 184.257812 "/>
<path style=" stroke:none;fill-rule:nonzero;fill:rgb(100%,86.666667%,0%);fill-opacity:1;" d="M 180.480469 77.066406 C 181.746094 79.25 183.011719 81.433594 184.277344 83.617188 C 185.375 85.507812 186.480469 87.390625 187.570312 89.28125 C 188.609375 91.085938 189.621094 92.90625 190.667969 94.707031 C 191.605469 96.320312 192.574219 97.917969 193.527344 99.527344 C 193.617188 99.675781 193.660156 99.863281 193.777344 99.980469 C 194.8125 101.019531 194.351562 101.96875 193.710938 103.003906 C 192.625 104.757812 191.640625 106.570312 190.597656 108.351562 C 189.734375 109.828125 188.835938 111.285156 187.976562 112.761719 C 187.386719 113.78125 186.851562 114.832031 186.261719 115.851562 C 185.546875 117.097656 184.796875 118.324219 184.070312 119.566406 C 182.816406 121.707031 181.558594 123.851562 180.3125 126 C 179.617188 127.203125 178.941406 128.417969 178.25 129.628906 C 176.171875 133.28125 174.089844 136.933594 172.003906 140.585938 C 170.480469 143.246094 168.945312 145.902344 167.351562 148.582031 C 162.828125 145.976562 158.371094 143.347656 153.917969 140.714844 C 149.550781 138.132812 145.1875 135.542969 140.84375 132.914062 C 141.605469 131.625 142.351562 130.382812 143.082031 129.128906 C 144.0625 127.449219 145.023438 125.761719 145.992188 124.074219 C 146.46875 123.25 146.945312 122.421875 147.417969 121.59375 C 147.945312 120.671875 148.46875 119.746094 148.992188 118.824219 C 149.402344 118.101562 149.789062 117.371094 150.21875 116.660156 C 151.078125 115.246094 151.992188 113.867188 152.820312 112.4375 C 153.6875 110.941406 154.460938 109.390625 155.308594 107.882812 C 156.398438 105.957031 157.507812 104.042969 158.632812 102.132812 C 158.972656 101.554688 158.859375 101.023438 158.5625 100.503906 C 157.027344 97.847656 155.480469 95.203125 153.980469 92.546875 C 155.894531 91.4375 157.773438 90.335938 159.648438 89.230469 C 162.335938 87.644531 165.019531 86.054688 167.707031 84.472656 C 170.78125 82.660156 173.855469 80.84375 176.941406 79.042969 C 178.109375 78.363281 179.300781 77.722656 180.480469 77.066406 Z M 180.480469 77.066406 "/>
<path style=" stroke:none;fill-rule:nonzero;fill:rgb(90.588235%,0.392157%,5.490196%);fill-opacity:1;" d="M 7.449219 71.257812 C 7.449219 53.75 7.449219 36.246094 7.449219 18.679688 C 21.460938 18.679688 35.4375 18.679688 49.46875 18.738281 C 49.523438 28.957031 49.523438 39.117188 49.464844 49.28125 C 45.675781 49.289062 41.941406 49.289062 38.179688 49.289062 C 38.179688 49.574219 38.179688 49.789062 38.179688 50.003906 C 38.179688 55.835938 38.179688 61.664062 38.179688 67.496094 C 38.179688 68.753906 38.167969 70.015625 38.105469 71.277344 C 28.675781 71.277344 19.300781 71.273438 9.925781 71.273438 C 9.101562 71.273438 8.273438 71.261719 7.449219 71.257812 Z M 7.449219 71.257812 "/>
<path style=" stroke:none;fill-rule:nonzero;fill:rgb(65.882353%,82.352941%,64.313725%);fill-opacity:1;" d="M 49.523438 49.273438 C 49.523438 39.117188 49.523438 28.957031 49.523438 18.746094 C 49.777344 18.6875 50.03125 18.675781 50.289062 18.675781 C 70.054688 18.675781 89.820312 18.675781 109.585938 18.679688 C 109.839844 18.679688 110.09375 18.703125 110.375 18.8125 C 110.40625 29.027344 110.40625 39.152344 110.351562 49.28125 C 90.136719 49.289062 69.976562 49.289062 49.816406 49.289062 C 49.71875 49.289062 49.621094 49.28125 49.523438 49.273438 Z M 49.523438 49.273438 "/>
<path style=" stroke:none;fill-rule:nonzero;fill:rgb(23.529412%,66.666667%,27.843137%);fill-opacity:1;" d="M 140.824219 132.953125 C 145.1875 135.542969 149.550781 138.132812 153.917969 140.714844 C 158.371094 143.347656 162.828125 145.976562 167.324219 148.617188 C 167.300781 148.808594 167.257812 149 167.164062 149.164062 C 160.484375 160.703125 153.796875 172.238281 147.121094 183.78125 C 146.929688 184.109375 146.742188 184.292969 146.304688 184.292969 C 135.042969 184.273438 123.78125 184.277344 112.46875 184.269531 C 112.410156 173.984375 112.410156 163.710938 112.464844 153.375 C 112.699219 153.3125 112.875 153.308594 113.054688 153.308594 C 118.210938 153.308594 123.367188 153.3125 128.527344 153.300781 C 128.722656 153.300781 129.019531 153.230469 129.101562 153.09375 C 130.488281 150.757812 131.855469 148.40625 133.214844 146.054688 C 134.40625 144 135.585938 141.9375 136.761719 139.871094 C 137.578125 138.4375 138.363281 136.980469 139.191406 135.554688 C 139.703125 134.667969 140.277344 133.820312 140.824219 132.953125 Z M 140.824219 132.953125 "/>
<path style=" stroke:none;fill-rule:nonzero;fill:rgb(100%,86.666667%,0%);fill-opacity:1;" d="M 110.40625 49.273438 C 110.40625 39.152344 110.40625 29.027344 110.410156 18.851562 C 118.09375 18.769531 125.773438 18.746094 133.453125 18.722656 C 137.390625 18.710938 141.328125 18.734375 145.265625 18.664062 C 146.285156 18.644531 146.941406 18.980469 147.425781 19.832031 C 148.28125 21.347656 149.152344 22.855469 150.027344 24.359375 C 150.941406 25.929688 151.886719 27.484375 152.785156 29.066406 C 153.917969 31.058594 155.003906 33.082031 156.140625 35.074219 C 157.054688 36.679688 158.011719 38.261719 158.960938 39.847656 C 159.429688 40.628906 159.921875 41.398438 160.402344 42.253906 C 160.277344 42.429688 160.164062 42.539062 160.03125 42.617188 C 158.242188 43.675781 156.445312 44.726562 154.65625 45.789062 C 152.023438 47.351562 149.394531 48.925781 146.761719 50.492188 C 143.21875 52.601562 139.675781 54.707031 136.128906 56.808594 C 135.40625 57.234375 134.660156 57.628906 133.894531 58.011719 C 133.007812 56.449219 132.171875 54.902344 131.292969 53.375 C 130.574219 52.128906 129.804688 50.910156 129.058594 49.675781 C 128.882812 49.386719 128.660156 49.269531 128.300781 49.28125 C 127.039062 49.308594 125.78125 49.292969 124.519531 49.289062 C 119.816406 49.285156 115.109375 49.28125 110.40625 49.273438 Z M 110.40625 49.273438 "/>
<path style=" stroke:none;fill-rule:nonzero;fill:rgb(91.372549%,76.078431%,0.392157%);fill-opacity:1;" d="M 133.925781 58.039062 C 134.660156 57.628906 135.40625 57.234375 136.128906 56.808594 C 139.675781 54.707031 143.21875 52.601562 146.761719 50.492188 C 149.394531 48.925781 152.023438 47.351562 154.65625 45.789062 C 156.445312 44.726562 158.242188 43.675781 160.03125 42.617188 C 160.164062 42.539062 160.277344 42.429688 160.414062 42.289062 C 160.867188 43.046875 161.285156 43.859375 161.742188 44.648438 C 162.269531 45.542969 162.855469 46.40625 163.375 47.304688 C 163.691406 47.84375 163.90625 48.445312 164.214844 48.992188 C 164.855469 50.128906 165.53125 51.242188 166.183594 52.375 C 166.742188 53.34375 167.277344 54.324219 167.835938 55.292969 C 168.226562 55.96875 168.652344 56.628906 169.039062 57.308594 C 170.019531 59.023438 170.980469 60.75 171.960938 62.464844 C 172.640625 63.648438 173.347656 64.8125 174.023438 65.996094 C 174.859375 67.453125 175.660156 68.933594 176.503906 70.390625 C 177.367188 71.882812 178.261719 73.359375 179.148438 74.839844 C 179.582031 75.558594 180.027344 76.269531 180.472656 77.023438 C 179.300781 77.722656 178.109375 78.363281 176.941406 79.042969 C 173.855469 80.84375 170.78125 82.660156 167.707031 84.472656 C 165.019531 86.054688 162.335938 87.644531 159.648438 89.230469 C 157.773438 90.335938 155.894531 91.4375 153.953125 92.511719 C 152.261719 89.625 150.640625 86.761719 148.992188 83.914062 C 147.558594 81.433594 146.085938 78.96875 144.640625 76.492188 C 143.398438 74.355469 142.167969 72.210938 140.933594 70.066406 C 140.148438 68.710938 139.355469 67.359375 138.582031 65.996094 C 137.914062 64.824219 137.289062 63.621094 136.605469 62.457031 C 135.734375 60.972656 134.820312 59.511719 133.925781 58.039062 Z M 133.925781 58.039062 "/>
<path style=" stroke:none;fill-rule:nonzero;fill:rgb(92.156863%,76.862745%,0.784314%);fill-opacity:1;" d="M 38.160156 133.097656 C 28.117188 133.097656 18.074219 133.097656 8.027344 133.09375 C 7.816406 133.09375 7.601562 133.058594 7.355469 133.003906 C 7.324219 122.054688 7.324219 111.140625 7.328125 100.226562 C 7.328125 98.769531 7.332031 97.3125 7.394531 95.800781 C 17.691406 95.746094 27.925781 95.742188 38.167969 95.796875 C 38.175781 108.148438 38.179688 120.445312 38.179688 132.742188 C 38.179688 132.863281 38.167969 132.980469 38.160156 133.097656 Z M 38.160156 133.097656 "/>
<path style=" stroke:none;fill-rule:nonzero;fill:rgb(100%,86.666667%,0%);fill-opacity:1;" d="M 38.160156 95.742188 C 27.925781 95.742188 17.691406 95.746094 7.402344 95.746094 C 7.339844 94.742188 7.328125 93.738281 7.328125 92.734375 C 7.328125 85.832031 7.328125 78.925781 7.328125 72.019531 C 7.328125 71.785156 7.351562 71.550781 7.402344 71.285156 C 8.273438 71.261719 9.101562 71.273438 9.925781 71.273438 C 19.300781 71.273438 28.675781 71.277344 38.113281 71.332031 C 38.175781 79.171875 38.179688 86.957031 38.179688 94.742188 C 38.179688 95.074219 38.167969 95.410156 38.160156 95.742188 Z M 38.160156 95.742188 "/>
<path style=" stroke:none;fill-rule:nonzero;fill:rgb(100%,100%,100%);fill-opacity:1;" d="M 38.167969 95.796875 C 38.167969 95.410156 38.179688 95.074219 38.179688 94.742188 C 38.179688 86.957031 38.175781 79.171875 38.167969 71.332031 C 38.167969 70.015625 38.179688 68.753906 38.179688 67.496094 C 38.179688 61.664062 38.179688 55.835938 38.179688 50.003906 C 38.179688 49.789062 38.179688 49.574219 38.179688 49.289062 C 41.941406 49.289062 45.675781 49.289062 49.464844 49.28125 C 49.621094 49.28125 49.71875 49.289062 49.816406 49.289062 C 69.976562 49.289062 90.136719 49.289062 110.351562 49.28125 C 115.109375 49.28125 119.816406 49.285156 124.519531 49.289062 C 125.78125 49.292969 127.039062 49.308594 128.300781 49.28125 C 128.660156 49.269531 128.882812 49.386719 129.058594 49.675781 C 129.804688 50.910156 130.574219 52.128906 131.292969 53.375 C 132.171875 54.902344 133.007812 56.449219 133.894531 58.011719 C 134.820312 59.511719 135.734375 60.972656 136.605469 62.457031 C 137.289062 63.621094 137.914062 64.824219 138.582031 65.996094 C 139.355469 67.359375 140.148438 68.710938 140.933594 70.066406 C 142.167969 72.210938 143.398438 74.355469 144.640625 76.492188 C 146.085938 78.96875 147.558594 81.433594 148.992188 83.914062 C 150.640625 86.761719 152.261719 89.625 153.917969 92.519531 C 155.480469 95.203125 157.027344 97.847656 158.5625 100.503906 C 158.859375 101.023438 158.972656 101.554688 158.632812 102.132812 C 157.507812 104.042969 156.398438 105.957031 155.308594 107.882812 C 154.460938 109.390625 153.6875 110.941406 152.820312 112.4375 C 151.992188 113.867188 151.078125 115.246094 150.21875 116.660156 C 149.789062 117.371094 149.402344 118.101562 148.992188 118.824219 C 148.46875 119.746094 147.945312 120.671875 147.417969 121.59375 C 146.945312 122.421875 146.46875 123.25 145.992188 124.074219 C 145.023438 125.761719 144.0625 127.449219 143.082031 129.128906 C 142.351562 130.382812 141.605469 131.625 140.84375 132.914062 C 140.277344 133.820312 139.703125 134.667969 139.191406 135.554688 C 138.363281 136.980469 137.578125 138.4375 136.761719 139.871094 C 135.585938 141.9375 134.40625 144 133.214844 146.054688 C 131.855469 148.40625 130.488281 150.757812 129.101562 153.09375 C 129.019531 153.230469 128.722656 153.300781 128.527344 153.300781 C 123.367188 153.3125 118.210938 153.308594 113.054688 153.308594 C 112.875 153.308594 112.699219 153.3125 112.464844 153.320312 C 112.15625 153.324219 111.902344 153.308594 111.644531 153.308594 C 87.433594 153.308594 63.226562 153.308594 39.015625 153.308594 C 38.761719 153.308594 38.507812 153.308594 38.175781 153.308594 C 38.175781 146.585938 38.175781 139.894531 38.167969 133.152344 C 38.167969 132.980469 38.179688 132.863281 38.179688 132.742188 C 38.179688 120.445312 38.175781 108.148438 38.167969 95.796875 Z M 38.167969 95.796875 "/>
</g>
</svg>
