<?xml version="1.0" encoding="UTF-8"?>
<!DOCTYPE svg PUBLIC "-//W3C//DTD SVG 1.1//EN" "http://www.w3.org/Graphics/SVG/1.1/DTD/svg11.dtd">
<svg xmlns="http://www.w3.org/2000/svg" version="1.1" width="1692px" height="1692px" style="shape-rendering:geometricPrecision; text-rendering:geometricPrecision; image-rendering:optimizeQuality; fill-rule:evenodd; clip-rule:evenodd" xmlns:xlink="http://www.w3.org/1999/xlink">
<g><path style="opacity:1" fill="#e6010d" d="M 417.5,156.5 C 417.5,242.833 417.5,329.167 417.5,415.5C 385.5,415.5 353.5,415.5 321.5,415.5C 321.5,477.5 321.5,539.5 321.5,601.5C 234.833,601.5 148.167,601.5 61.5,601.5C 61.5,453.167 61.5,304.833 61.5,156.5C 180.167,156.5 298.833,156.5 417.5,156.5 Z"/></g>
<g><path style="opacity:1" fill="#a7d2a3" d="M 417.5,156.5 C 589.334,156.167 761.001,156.5 932.5,157.5C 932.5,243.5 932.5,329.5 932.5,415.5C 760.833,415.5 589.167,415.5 417.5,415.5C 417.5,329.167 417.5,242.833 417.5,156.5 Z"/></g>
<g><path style="opacity:1" fill="#fedc00" d="M 1356.5,356.5 C 1281.3,400.93 1206.3,445.596 1131.5,490.5C 1119.8,469.963 1108.3,449.296 1097,428.5C 1093.92,424.676 1091.09,420.676 1088.5,416.5C 1036.5,415.5 984.504,415.167 932.5,415.5C 932.5,329.5 932.5,243.5 932.5,157.5C 1034.27,156.355 1136.27,156.188 1238.5,157C 1242.34,161.183 1245.84,165.683 1249,170.5C 1284.08,232.994 1319.91,294.994 1356.5,356.5 Z"/></g>
<g><path style="opacity:1" fill="#e8c201" d="M 1356.5,356.5 C 1412.17,454.466 1468.51,552.466 1525.5,650.5C 1522.74,651.38 1520.07,652.546 1517.5,654C 1445.44,697.027 1373.11,739.527 1300.5,781.5C 1244.49,684.195 1188.16,587.195 1131.5,490.5C 1206.3,445.596 1281.3,400.93 1356.5,356.5 Z"/></g>
<g><path style="opacity:1" fill="#fedd00" d="M 61.5,601.5 C 148.167,601.5 234.833,601.5 321.5,601.5C 321.5,670.5 321.5,739.5 321.5,808.5C 254.833,808.5 188.167,808.5 121.5,808.5C 101.167,808.5 80.8333,808.5 60.5,808.5C 60.1675,739.331 60.5008,670.331 61.5,601.5 Z"/></g>
<g><path style="opacity:0.999" fill="#fedc00" d="M 1525.5,650.5 C 1540.65,673.801 1554.48,697.801 1567,722.5C 1592.78,765.271 1618.12,808.271 1643,851.5C 1643.67,854.5 1643.67,857.5 1643,860.5C 1566.71,991.688 1490.88,1123.36 1415.5,1255.5C 1412.98,1255.24 1410.65,1254.41 1408.5,1253C 1335.61,1209.05 1262.27,1165.89 1188.5,1123.5C 1192.32,1117.86 1196.16,1112.2 1200,1106.5C 1247.38,1023.58 1294.88,940.743 1342.5,858C 1341.84,855.536 1341.34,853.036 1341,850.5C 1327.49,827.472 1313.99,804.472 1300.5,781.5C 1373.11,739.527 1445.44,697.027 1517.5,654C 1520.07,652.546 1522.74,651.38 1525.5,650.5 Z"/></g>
<g><path style="opacity:1" fill="#ebbf02" d="M 60.5,808.5 C 80.8333,808.5 101.167,808.5 121.5,808.5C 121.611,809.117 121.944,809.617 122.5,810C 124.769,810.758 126.936,810.591 129,809.5C 132.007,811.496 134.84,811.496 137.5,809.5C 139.042,810.747 140.542,810.747 142,809.5C 144.299,811.532 146.799,812.199 149.5,811.5C 152.177,813.168 154.844,814.834 157.5,816.5C 159.822,814.302 161.989,814.636 164,817.5C 164.333,816.833 164.667,816.167 165,815.5C 166.491,817.004 168.324,817.837 170.5,818C 168.405,818.556 168.238,819.056 170,819.5C 171.452,817.175 173.119,817.175 175,819.5C 177.954,817.029 180.954,817.029 184,819.5C 185.635,818.151 187.135,818.318 188.5,820C 186.405,820.556 186.238,821.056 188,821.5C 189.581,819.153 190.914,819.153 192,821.5C 193.779,820.521 195.445,820.854 197,822.5C 198.552,821.034 200.386,820.034 202.5,819.5C 205.356,823.599 208.356,823.933 211.5,820.5C 212.167,821.167 212.833,821.833 213.5,822.5C 214.696,822.154 214.696,821.654 213.5,821C 214.825,821.148 215.992,820.982 217,820.5C 217.5,821 218,821.5 218.5,822C 221.372,822.315 224.205,822.815 227,823.5C 229.978,821.46 233.144,820.794 236.5,821.5C 237.281,822.729 237.781,824.062 238,825.5C 238.75,824.874 239.584,824.374 240.5,824C 238.729,823.465 238.396,822.631 239.5,821.5C 240.5,822.833 241.5,822.833 242.5,821.5C 243.192,822.025 243.692,822.692 244,823.5C 245.913,821.044 247.579,821.378 249,824.5C 249.98,823.019 251.147,821.685 252.5,820.5C 253.768,821.428 255.101,821.595 256.5,821C 258.594,820.138 259.594,818.972 259.5,817.5C 260.425,818.641 261.259,818.641 262,817.5C 262.9,819.398 264.066,821.064 265.5,822.5C 266.672,822.081 267.672,821.415 268.5,820.5C 265.814,818.22 265.981,817.553 269,818.5C 269.945,818.095 270.612,817.428 271,816.5C 272.133,818.211 273.633,818.711 275.5,818C 275.167,817.667 274.833,817.333 274.5,817C 277.352,816.087 279.519,816.92 281,819.5C 282.385,818.449 283.385,817.116 284,815.5C 284.667,816.167 285.333,816.833 286,817.5C 288.552,817.131 291.219,817.131 294,817.5C 299.973,815.888 305.973,814.222 312,812.5C 313.893,810.291 315.727,810.624 317.5,813.5C 317.669,812.603 318.002,811.603 318.5,810.5C 319.417,811.127 320.417,811.461 321.5,811.5C 321.5,821.167 321.5,830.833 321.5,840.5C 320.603,841.598 319.77,841.598 319,840.5C 319.077,841.738 318.911,842.738 318.5,843.5C 316.226,843.03 314.226,842.03 312.5,840.5C 311.212,842.475 309.545,842.475 307.5,840.5C 306.479,841.002 306.312,841.668 307,842.5C 308.255,843.211 309.421,844.044 310.5,845C 308.924,845.44 307.59,846.273 306.5,847.5C 303.833,846.5 303.833,845.5 306.5,844.5C 304.548,842.467 302.382,842.134 300,843.5C 299,842.5 298,841.5 297,840.5C 296.683,842.301 296.016,842.634 295,841.5C 293.981,842.687 292.814,843.687 291.5,844.5C 290.614,843.675 290.281,842.675 290.5,841.5C 288.61,841.297 287.11,841.963 286,843.5C 284.951,842.483 283.784,842.316 282.5,843C 283.696,843.654 283.696,844.154 282.5,844.5C 280.884,843.885 279.551,842.885 278.5,841.5C 277.289,842.274 277.289,843.107 278.5,844C 276.939,844.318 275.772,845.151 275,846.5C 273.525,842.845 272.191,843.178 271,847.5C 268.684,846.633 266.684,847.299 265,849.5C 264.716,847.114 263.716,846.448 262,847.5C 261.481,846.484 260.647,845.818 259.5,845.5C 256.55,846.624 253.717,847.958 251,849.5C 250.586,849.043 250.086,848.709 249.5,848.5C 247.434,852.506 245.934,852.173 245,847.5C 242.595,848.274 240.095,848.774 237.5,849C 238.654,849.914 238.487,850.747 237,851.5C 235.605,850.185 234.605,850.519 234,852.5C 233.049,848.266 231.049,847.599 228,850.5C 226.164,848.396 223.998,848.062 221.5,849.5C 222.025,850.192 222.692,850.692 223.5,851C 222.234,851.309 221.067,851.809 220,852.5C 219.368,850.469 218.201,848.802 216.5,847.5C 214.587,848.373 212.753,849.373 211,850.5C 210.692,849.692 210.192,849.025 209.5,848.5C 206.5,849.833 203.5,849.833 200.5,848.5C 199.614,849.325 199.281,850.325 199.5,851.5C 196.203,851.671 195.869,851.005 198.5,849.5C 195.144,846.681 192.311,847.015 190,850.5C 189.517,849.552 189.351,848.552 189.5,847.5C 188.178,847.67 187.011,847.337 186,846.5C 185.717,849.742 184.883,850.076 183.5,847.5C 182.318,849.645 180.818,849.645 179,847.5C 177.284,848.552 176.284,847.886 176,845.5C 174.47,846.92 172.637,847.92 170.5,848.5C 171.025,849.192 171.692,849.692 172.5,850C 171.874,850.75 171.374,851.584 171,852.5C 169.577,850.655 168.41,848.655 167.5,846.5C 166.167,849.167 164.833,849.167 163.5,846.5C 163.212,848.285 163.212,849.952 163.5,851.5C 161.391,850.35 159.391,849.016 157.5,847.5C 156.914,847.709 156.414,848.043 156,848.5C 155.417,846.998 154.584,845.665 153.5,844.5C 152.289,845.274 152.289,846.107 153.5,847C 152.5,847.5 151.5,848 150.5,848.5C 150.835,847.336 150.835,846.003 150.5,844.5C 149.295,846.138 147.962,846.471 146.5,845.5C 145.833,846.5 145.167,847.5 144.5,848.5C 143.5,847.833 142.5,847.167 141.5,846.5C 138.568,846.633 135.568,846.633 132.5,846.5C 130.379,848.898 128.045,849.065 125.5,847C 126.701,846.097 127.535,844.931 128,843.5C 128.893,844.711 129.726,844.711 130.5,843.5C 129.672,842.585 128.672,841.919 127.5,841.5C 126.139,843.028 124.972,844.695 124,846.5C 123.02,845.019 121.853,843.685 120.5,842.5C 119.914,842.709 119.414,843.043 119,843.5C 117.69,841.868 117.19,840.201 117.5,838.5C 114.833,841.167 112.167,841.167 109.5,838.5C 108.749,839.376 108.249,840.376 108,841.5C 106.167,839.333 104.333,837.167 102.5,835C 102.833,834.667 103.167,834.333 103.5,834C 102.437,832.812 101.103,832.312 99.5,832.5C 99.3601,834.124 100.027,835.29 101.5,836C 100.151,836.772 99.3176,837.939 99,839.5C 98.2509,837.32 97.7509,834.987 97.5,832.5C 96.4679,834.04 95.1346,834.54 93.5,834C 93.8333,833.667 94.1667,833.333 94.5,833C 92.4356,832.347 90.7689,831.18 89.5,829.5C 88.8076,830.025 88.3076,830.692 88,831.5C 87.5,830.333 86.6667,829.5 85.5,829C 86.5243,827.633 86.0243,826.8 84,826.5C 82.7651,827.615 81.5984,827.615 80.5,826.5C 77.6462,830.599 76.1462,830.266 76,825.5C 75.1107,826.888 74.6107,826.722 74.5,825C 76.0446,823.359 75.7113,822.193 73.5,821.5C 73.0074,823.433 72.5074,825.766 72,828.5C 70.7163,827.428 70.3829,826.095 71,824.5C 69.3333,821.833 67.6667,821.833 66,824.5C 65.6121,823.572 64.9454,822.905 64,822.5C 62.8615,822.989 61.6948,823.322 60.5,823.5C 60.5,818.5 60.5,813.5 60.5,808.5 Z"/></g>
<g><path style="opacity:1" fill="#ebb902" d="M 121.5,808.5 C 188.167,808.5 254.833,808.5 321.5,808.5C 321.5,809.5 321.5,810.5 321.5,811.5C 320.417,811.461 319.417,811.127 318.5,810.5C 318.002,811.603 317.669,812.603 317.5,813.5C 315.727,810.624 313.893,810.291 312,812.5C 305.973,814.222 299.973,815.888 294,817.5C 291.219,817.131 288.552,817.131 286,817.5C 285.333,816.833 284.667,816.167 284,815.5C 283.385,817.116 282.385,818.449 281,819.5C 279.519,816.92 277.352,816.087 274.5,817C 274.833,817.333 275.167,817.667 275.5,818C 273.633,818.711 272.133,818.211 271,816.5C 270.612,817.428 269.945,818.095 269,818.5C 265.981,817.553 265.814,818.22 268.5,820.5C 267.672,821.415 266.672,822.081 265.5,822.5C 264.066,821.064 262.9,819.398 262,817.5C 261.259,818.641 260.425,818.641 259.5,817.5C 259.594,818.972 258.594,820.138 256.5,821C 255.101,821.595 253.768,821.428 252.5,820.5C 251.147,821.685 249.98,823.019 249,824.5C 247.579,821.378 245.913,821.044 244,823.5C 243.692,822.692 243.192,822.025 242.5,821.5C 241.5,822.833 240.5,822.833 239.5,821.5C 238.396,822.631 238.729,823.465 240.5,824C 239.584,824.374 238.75,824.874 238,825.5C 237.781,824.062 237.281,822.729 236.5,821.5C 233.144,820.794 229.978,821.46 227,823.5C 224.205,822.815 221.372,822.315 218.5,822C 218,821.5 217.5,821 217,820.5C 215.992,820.982 214.825,821.148 213.5,821C 214.696,821.654 214.696,822.154 213.5,822.5C 212.833,821.833 212.167,821.167 211.5,820.5C 208.356,823.933 205.356,823.599 202.5,819.5C 200.386,820.034 198.552,821.034 197,822.5C 195.445,820.854 193.779,820.521 192,821.5C 190.914,819.153 189.581,819.153 188,821.5C 186.238,821.056 186.405,820.556 188.5,820C 187.135,818.318 185.635,818.151 184,819.5C 180.954,817.029 177.954,817.029 175,819.5C 173.119,817.175 171.452,817.175 170,819.5C 168.238,819.056 168.405,818.556 170.5,818C 168.324,817.837 166.491,817.004 165,815.5C 164.667,816.167 164.333,816.833 164,817.5C 161.989,814.636 159.822,814.302 157.5,816.5C 154.844,814.834 152.177,813.168 149.5,811.5C 146.799,812.199 144.299,811.532 142,809.5C 140.542,810.747 139.042,810.747 137.5,809.5C 134.84,811.496 132.007,811.496 129,809.5C 126.936,810.591 124.769,810.758 122.5,810C 121.944,809.617 121.611,809.117 121.5,808.5 Z"/></g>
<g><path style="opacity:1" fill="#ebc402" d="M 321.5,840.5 C 321.5,935.167 321.5,1029.83 321.5,1124.5C 234.332,1124.83 147.332,1124.5 60.5,1123.5C 60.5,1023.5 60.5,923.5 60.5,823.5C 61.6948,823.322 62.8615,822.989 64,822.5C 64.9454,822.905 65.6121,823.572 66,824.5C 67.6667,821.833 69.3333,821.833 71,824.5C 70.3829,826.095 70.7163,827.428 72,828.5C 72.5074,825.766 73.0074,823.433 73.5,821.5C 75.7113,822.193 76.0446,823.359 74.5,825C 74.6107,826.722 75.1107,826.888 76,825.5C 76.1462,830.266 77.6462,830.599 80.5,826.5C 81.5984,827.615 82.7651,827.615 84,826.5C 86.0243,826.8 86.5243,827.633 85.5,829C 86.6667,829.5 87.5,830.333 88,831.5C 88.3076,830.692 88.8076,830.025 89.5,829.5C 90.7689,831.18 92.4356,832.347 94.5,833C 94.1667,833.333 93.8333,833.667 93.5,834C 95.1346,834.54 96.4679,834.04 97.5,832.5C 97.7509,834.987 98.2509,837.32 99,839.5C 99.3176,837.939 100.151,836.772 101.5,836C 100.027,835.29 99.3601,834.124 99.5,832.5C 101.103,832.312 102.437,832.812 103.5,834C 103.167,834.333 102.833,834.667 102.5,835C 104.333,837.167 106.167,839.333 108,841.5C 108.249,840.376 108.749,839.376 109.5,838.5C 112.167,841.167 114.833,841.167 117.5,838.5C 117.19,840.201 117.69,841.868 119,843.5C 119.414,843.043 119.914,842.709 120.5,842.5C 121.853,843.685 123.02,845.019 124,846.5C 124.972,844.695 126.139,843.028 127.5,841.5C 128.672,841.919 129.672,842.585 130.5,843.5C 129.726,844.711 128.893,844.711 128,843.5C 127.535,844.931 126.701,846.097 125.5,847C 128.045,849.065 130.379,848.898 132.5,846.5C 135.568,846.633 138.568,846.633 141.5,846.5C 142.5,847.167 143.5,847.833 144.5,848.5C 145.167,847.5 145.833,846.5 146.5,845.5C 147.962,846.471 149.295,846.138 150.5,844.5C 150.835,846.003 150.835,847.336 150.5,848.5C 151.5,848 152.5,847.5 153.5,847C 152.289,846.107 152.289,845.274 153.5,844.5C 154.584,845.665 155.417,846.998 156,848.5C 156.414,848.043 156.914,847.709 157.5,847.5C 159.391,849.016 161.391,850.35 163.5,851.5C 163.212,849.952 163.212,848.285 163.5,846.5C 164.833,849.167 166.167,849.167 167.5,846.5C 168.41,848.655 169.577,850.655 171,852.5C 171.374,851.584 171.874,850.75 172.5,850C 171.692,849.692 171.025,849.192 170.5,848.5C 172.637,847.92 174.47,846.92 176,845.5C 176.284,847.886 177.284,848.552 179,847.5C 180.818,849.645 182.318,849.645 183.5,847.5C 184.883,850.076 185.717,849.742 186,846.5C 187.011,847.337 188.178,847.67 189.5,847.5C 189.351,848.552 189.517,849.552 190,850.5C 192.311,847.015 195.144,846.681 198.5,849.5C 195.869,851.005 196.203,851.671 199.5,851.5C 199.281,850.325 199.614,849.325 200.5,848.5C 203.5,849.833 206.5,849.833 209.5,848.5C 210.192,849.025 210.692,849.692 211,850.5C 212.753,849.373 214.587,848.373 216.5,847.5C 218.201,848.802 219.368,850.469 220,852.5C 221.067,851.809 222.234,851.309 223.5,851C 222.692,850.692 222.025,850.192 221.5,849.5C 223.998,848.062 226.164,848.396 228,850.5C 231.049,847.599 233.049,848.266 234,852.5C 234.605,850.519 235.605,850.185 237,851.5C 238.487,850.747 238.654,849.914 237.5,849C 240.095,848.774 242.595,848.274 245,847.5C 245.934,852.173 247.434,852.506 249.5,848.5C 250.086,848.709 250.586,849.043 251,849.5C 253.717,847.958 256.55,846.624 259.5,845.5C 260.647,845.818 261.481,846.484 262,847.5C 263.716,846.448 264.716,847.114 265,849.5C 266.684,847.299 268.684,846.633 271,847.5C 272.191,843.178 273.525,842.845 275,846.5C 275.772,845.151 276.939,844.318 278.5,844C 277.289,843.107 277.289,842.274 278.5,841.5C 279.551,842.885 280.884,843.885 282.5,844.5C 283.696,844.154 283.696,843.654 282.5,843C 283.784,842.316 284.951,842.483 286,843.5C 287.11,841.963 288.61,841.297 290.5,841.5C 290.281,842.675 290.614,843.675 291.5,844.5C 292.814,843.687 293.981,842.687 295,841.5C 296.016,842.634 296.683,842.301 297,840.5C 298,841.5 299,842.5 300,843.5C 302.382,842.134 304.548,842.467 306.5,844.5C 303.833,845.5 303.833,846.5 306.5,847.5C 307.59,846.273 308.924,845.44 310.5,845C 309.421,844.044 308.255,843.211 307,842.5C 306.312,841.668 306.479,841.002 307.5,840.5C 309.545,842.475 311.212,842.475 312.5,840.5C 314.226,842.03 316.226,843.03 318.5,843.5C 318.911,842.738 319.077,841.738 319,840.5C 319.77,841.598 320.603,841.598 321.5,840.5 Z"/></g>
<g><path style="opacity:1" fill="#fedd00" d="M 60.5,1123.5 C 147.332,1124.5 234.332,1124.83 321.5,1124.5C 321.5,1181.5 321.5,1238.5 321.5,1295.5C 530.833,1295.5 740.167,1295.5 949.5,1295.5C 949.5,1382.83 949.5,1470.17 949.5,1557.5C 652.833,1557.5 356.167,1557.5 59.5,1557.5C 59.1671,1412.67 59.5004,1268 60.5,1123.5 Z"/></g>
<g><path style="opacity:1" fill="#3caa47" d="M 1188.5,1123.5 C 1262.27,1165.89 1335.61,1209.05 1408.5,1253C 1410.65,1254.41 1412.98,1255.24 1415.5,1255.5C 1357.86,1356.77 1299.7,1457.77 1241,1558.5C 1143.9,1557.5 1046.74,1557.17 949.5,1557.5C 949.5,1470.17 949.5,1382.83 949.5,1295.5C 996.5,1295.5 1043.5,1295.5 1090.5,1295.5C 1122.8,1237.89 1155.47,1180.55 1188.5,1123.5 Z"/></g>
</svg>
