<?xml version="1.0" encoding="UTF-8"?>
<svg xmlns="http://www.w3.org/2000/svg" xmlns:xlink="http://www.w3.org/1999/xlink" width="200px" height="200px" viewBox="0 0 200 200" version="1.1">
<g id="surface1">
<path style=" stroke:none;fill-rule:evenodd;fill:rgb(90.196078%,0.392157%,5.098039%);fill-opacity:1;" d="M 49.351562 18.5 C 49.351562 28.703125 49.351562 38.910156 49.351562 49.113281 C 45.566406 49.113281 41.785156 49.113281 38.003906 49.113281 C 38.003906 56.441406 38.003906 63.769531 38.003906 71.097656 C 27.757812 71.097656 17.515625 71.097656 7.269531 71.097656 C 7.269531 53.566406 7.269531 36.03125 7.269531 18.5 C 21.296875 18.5 35.324219 18.5 49.351562 18.5 Z M 49.351562 18.5 "/>
<path style=" stroke:none;fill-rule:evenodd;fill:rgb(65.490196%,82.352941%,63.921569%);fill-opacity:1;" d="M 49.351562 18.5 C 69.660156 18.460938 89.953125 18.5 110.222656 18.617188 C 110.222656 28.78125 110.222656 38.949219 110.222656 49.113281 C 89.933594 49.113281 69.640625 49.113281 49.351562 49.113281 C 49.351562 38.910156 49.351562 28.703125 49.351562 18.5 Z M 49.351562 18.5 "/>
<path style=" stroke:none;fill-rule:evenodd;fill:rgb(99.607843%,86.27451%,0%);fill-opacity:1;" d="M 160.34375 42.140625 C 151.453125 47.390625 142.589844 52.671875 133.746094 57.980469 C 132.363281 55.550781 131.003906 53.109375 129.667969 50.648438 C 129.304688 50.199219 128.96875 49.726562 128.664062 49.230469 C 122.519531 49.113281 116.371094 49.074219 110.222656 49.113281 C 110.222656 38.949219 110.222656 28.78125 110.222656 18.617188 C 122.253906 18.480469 134.3125 18.460938 146.394531 18.558594 C 146.847656 19.050781 147.261719 19.585938 147.636719 20.152344 C 151.78125 27.539062 156.019531 34.871094 160.34375 42.140625 Z M 160.34375 42.140625 "/>
<path style=" stroke:none;fill-rule:evenodd;fill:rgb(90.980392%,76.078431%,0.392157%);fill-opacity:1;" d="M 160.34375 42.140625 C 166.921875 53.71875 173.582031 65.304688 180.320312 76.890625 C 179.992188 76.996094 179.675781 77.132812 179.375 77.304688 C 170.855469 82.390625 162.304688 87.414062 153.722656 92.375 C 147.101562 80.875 140.445312 69.410156 133.746094 57.980469 C 142.589844 52.671875 151.453125 47.390625 160.34375 42.140625 Z M 160.34375 42.140625 "/>
<path style=" stroke:none;fill-rule:evenodd;fill:rgb(99.607843%,86.666667%,0%);fill-opacity:1;" d="M 7.269531 71.097656 C 17.515625 71.097656 27.757812 71.097656 38.003906 71.097656 C 38.003906 79.253906 38.003906 87.410156 38.003906 95.566406 C 30.121094 95.566406 22.242188 95.566406 14.363281 95.566406 C 11.957031 95.566406 9.554688 95.566406 7.152344 95.566406 C 7.113281 87.390625 7.152344 79.234375 7.269531 71.097656 Z M 7.269531 71.097656 "/>
<path style=" stroke:none;fill-rule:evenodd;fill:rgb(99.607843%,86.27451%,0%);fill-opacity:1;" d="M 180.320312 76.890625 C 182.109375 79.644531 183.746094 82.480469 185.222656 85.402344 C 188.273438 90.457031 191.265625 95.539062 194.207031 100.648438 C 194.289062 101.003906 194.289062 101.359375 194.207031 101.714844 C 185.191406 117.222656 176.226562 132.785156 167.316406 148.402344 C 167.019531 148.375 166.742188 148.277344 166.488281 148.109375 C 157.875 142.914062 149.203125 137.8125 140.484375 132.800781 C 140.9375 132.132812 141.390625 131.464844 141.84375 130.792969 C 147.445312 120.992188 153.058594 111.199219 158.6875 101.417969 C 158.609375 101.128906 158.550781 100.832031 158.511719 100.53125 C 156.914062 97.808594 155.316406 95.089844 153.722656 92.375 C 162.304688 87.414062 170.855469 82.390625 179.375 77.304688 C 179.675781 77.132812 179.992188 76.996094 180.320312 76.890625 Z M 180.320312 76.890625 "/>
<path style=" stroke:none;fill-rule:evenodd;fill:rgb(92.156863%,74.901961%,0.784314%);fill-opacity:1;" d="M 7.152344 95.566406 C 9.554688 95.566406 11.957031 95.566406 14.363281 95.566406 C 14.375 95.640625 14.414062 95.699219 14.480469 95.746094 C 14.75 95.835938 15.003906 95.816406 15.25 95.6875 C 15.605469 95.921875 15.9375 95.921875 16.253906 95.6875 C 16.433594 95.832031 16.613281 95.832031 16.785156 95.6875 C 17.054688 95.925781 17.351562 96.003906 17.671875 95.921875 C 17.988281 96.121094 18.304688 96.316406 18.617188 96.511719 C 18.890625 96.253906 19.148438 96.292969 19.386719 96.632812 C 19.425781 96.550781 19.464844 96.472656 19.503906 96.394531 C 19.679688 96.574219 19.894531 96.671875 20.152344 96.691406 C 19.90625 96.757812 19.886719 96.816406 20.09375 96.867188 C 20.265625 96.59375 20.464844 96.59375 20.6875 96.867188 C 21.035156 96.574219 21.390625 96.574219 21.75 96.867188 C 21.941406 96.707031 22.121094 96.726562 22.28125 96.925781 C 22.035156 96.992188 22.015625 97.050781 22.222656 97.105469 C 22.410156 96.828125 22.566406 96.828125 22.695312 97.105469 C 22.90625 96.988281 23.101562 97.027344 23.285156 97.222656 C 23.46875 97.050781 23.6875 96.929688 23.9375 96.867188 C 24.273438 97.351562 24.628906 97.390625 25 96.984375 C 25.078125 97.066406 25.15625 97.144531 25.238281 97.222656 C 25.378906 97.179688 25.378906 97.121094 25.238281 97.042969 C 25.394531 97.0625 25.53125 97.042969 25.648438 96.984375 C 25.710938 97.042969 25.769531 97.105469 25.828125 97.164062 C 26.167969 97.199219 26.5 97.257812 26.832031 97.339844 C 27.183594 97.097656 27.558594 97.019531 27.957031 97.105469 C 28.046875 97.25 28.105469 97.40625 28.132812 97.578125 C 28.222656 97.503906 28.320312 97.445312 28.429688 97.398438 C 28.21875 97.335938 28.179688 97.238281 28.308594 97.105469 C 28.429688 97.261719 28.546875 97.261719 28.664062 97.105469 C 28.746094 97.167969 28.804688 97.246094 28.839844 97.339844 C 29.066406 97.050781 29.265625 97.089844 29.433594 97.457031 C 29.546875 97.285156 29.6875 97.125 29.847656 96.984375 C 29.996094 97.09375 30.152344 97.117188 30.320312 97.042969 C 30.566406 96.941406 30.683594 96.804688 30.671875 96.632812 C 30.78125 96.765625 30.882812 96.765625 30.96875 96.632812 C 31.074219 96.855469 31.214844 97.050781 31.382812 97.222656 C 31.523438 97.171875 31.640625 97.09375 31.738281 96.984375 C 31.421875 96.714844 31.441406 96.636719 31.796875 96.75 C 31.910156 96.703125 31.988281 96.621094 32.03125 96.511719 C 32.167969 96.714844 32.34375 96.773438 32.566406 96.691406 C 32.527344 96.652344 32.484375 96.613281 32.445312 96.570312 C 32.785156 96.464844 33.039062 96.5625 33.214844 96.867188 C 33.378906 96.742188 33.496094 96.585938 33.570312 96.394531 C 33.648438 96.472656 33.726562 96.550781 33.804688 96.632812 C 34.109375 96.585938 34.421875 96.585938 34.75 96.632812 C 35.457031 96.441406 36.167969 96.242188 36.878906 96.039062 C 37.101562 95.777344 37.320312 95.820312 37.53125 96.160156 C 37.550781 96.050781 37.589844 95.933594 37.648438 95.804688 C 37.757812 95.878906 37.875 95.917969 38.003906 95.921875 C 38.003906 97.066406 38.003906 98.207031 38.003906 99.351562 C 37.894531 99.480469 37.796875 99.480469 37.707031 99.351562 C 37.714844 99.496094 37.695312 99.613281 37.648438 99.703125 C 37.378906 99.648438 37.140625 99.53125 36.9375 99.351562 C 36.785156 99.582031 36.589844 99.582031 36.347656 99.351562 C 36.226562 99.410156 36.207031 99.488281 36.289062 99.585938 C 36.4375 99.671875 36.574219 99.769531 36.703125 99.882812 C 36.515625 99.933594 36.359375 100.03125 36.230469 100.175781 C 35.914062 100.058594 35.914062 99.941406 36.230469 99.824219 C 36 99.582031 35.742188 99.542969 35.460938 99.703125 C 35.34375 99.585938 35.222656 99.46875 35.105469 99.351562 C 35.070312 99.5625 34.988281 99.601562 34.871094 99.46875 C 34.75 99.609375 34.613281 99.726562 34.457031 99.824219 C 34.351562 99.726562 34.3125 99.605469 34.339844 99.46875 C 34.113281 99.445312 33.9375 99.523438 33.804688 99.703125 C 33.683594 99.585938 33.542969 99.566406 33.390625 99.644531 C 33.535156 99.722656 33.535156 99.78125 33.390625 99.824219 C 33.203125 99.75 33.042969 99.632812 32.917969 99.46875 C 32.777344 99.558594 32.777344 99.65625 32.917969 99.761719 C 32.734375 99.800781 32.597656 99.898438 32.507812 100.058594 C 32.332031 99.628906 32.175781 99.667969 32.03125 100.175781 C 31.757812 100.074219 31.523438 100.152344 31.324219 100.414062 C 31.289062 100.132812 31.171875 100.054688 30.96875 100.175781 C 30.90625 100.058594 30.808594 99.976562 30.671875 99.941406 C 30.324219 100.074219 29.988281 100.230469 29.667969 100.414062 C 29.621094 100.359375 29.5625 100.320312 29.492188 100.296875 C 29.246094 100.769531 29.070312 100.730469 28.960938 100.175781 C 28.675781 100.269531 28.378906 100.328125 28.074219 100.355469 C 28.210938 100.460938 28.191406 100.5625 28.015625 100.648438 C 27.847656 100.496094 27.730469 100.535156 27.660156 100.769531 C 27.546875 100.269531 27.3125 100.1875 26.949219 100.53125 C 26.734375 100.285156 26.476562 100.242188 26.183594 100.414062 C 26.242188 100.496094 26.324219 100.554688 26.417969 100.589844 C 26.269531 100.628906 26.128906 100.6875 26.003906 100.769531 C 25.929688 100.527344 25.792969 100.332031 25.589844 100.175781 C 25.363281 100.28125 25.148438 100.398438 24.941406 100.53125 C 24.90625 100.4375 24.84375 100.359375 24.761719 100.296875 C 24.410156 100.453125 24.054688 100.453125 23.699219 100.296875 C 23.59375 100.394531 23.554688 100.511719 23.582031 100.648438 C 23.191406 100.671875 23.152344 100.589844 23.464844 100.414062 C 23.066406 100.082031 22.730469 100.121094 22.457031 100.53125 C 22.402344 100.417969 22.382812 100.300781 22.398438 100.175781 C 22.242188 100.199219 22.105469 100.15625 21.984375 100.058594 C 21.953125 100.441406 21.855469 100.480469 21.691406 100.175781 C 21.550781 100.429688 21.375 100.429688 21.160156 100.175781 C 20.957031 100.300781 20.835938 100.222656 20.804688 99.941406 C 20.621094 100.109375 20.40625 100.226562 20.152344 100.296875 C 20.214844 100.378906 20.292969 100.4375 20.390625 100.472656 C 20.316406 100.5625 20.257812 100.660156 20.210938 100.769531 C 20.042969 100.550781 19.90625 100.3125 19.800781 100.058594 C 19.640625 100.375 19.484375 100.375 19.328125 100.058594 C 19.292969 100.269531 19.292969 100.46875 19.328125 100.648438 C 19.078125 100.515625 18.839844 100.355469 18.617188 100.175781 C 18.546875 100.203125 18.488281 100.242188 18.441406 100.296875 C 18.371094 100.117188 18.273438 99.960938 18.144531 99.824219 C 18 99.914062 18 100.011719 18.144531 100.117188 C 18.027344 100.175781 17.90625 100.238281 17.789062 100.296875 C 17.828125 100.15625 17.828125 100 17.789062 99.824219 C 17.648438 100.015625 17.488281 100.054688 17.316406 99.941406 C 17.238281 100.058594 17.160156 100.175781 17.082031 100.296875 C 16.960938 100.214844 16.84375 100.136719 16.726562 100.058594 C 16.378906 100.074219 16.023438 100.074219 15.660156 100.058594 C 15.410156 100.34375 15.136719 100.363281 14.835938 100.117188 C 14.976562 100.011719 15.074219 99.875 15.128906 99.703125 C 15.234375 99.847656 15.335938 99.847656 15.425781 99.703125 C 15.328125 99.597656 15.210938 99.519531 15.070312 99.46875 C 14.910156 99.648438 14.773438 99.847656 14.65625 100.058594 C 14.542969 99.882812 14.402344 99.726562 14.242188 99.585938 C 14.175781 99.609375 14.113281 99.652344 14.066406 99.703125 C 13.910156 99.511719 13.851562 99.316406 13.890625 99.113281 C 13.574219 99.429688 13.257812 99.429688 12.941406 99.113281 C 12.855469 99.21875 12.796875 99.335938 12.765625 99.46875 C 12.550781 99.210938 12.332031 98.957031 12.117188 98.699219 C 12.15625 98.660156 12.195312 98.621094 12.234375 98.582031 C 12.109375 98.441406 11.949219 98.382812 11.761719 98.402344 C 11.746094 98.597656 11.824219 98.734375 11.996094 98.816406 C 11.839844 98.910156 11.738281 99.046875 11.703125 99.230469 C 11.613281 98.972656 11.554688 98.699219 11.523438 98.402344 C 11.402344 98.585938 11.246094 98.644531 11.050781 98.582031 C 11.089844 98.542969 11.128906 98.503906 11.171875 98.464844 C 10.925781 98.386719 10.730469 98.25 10.578125 98.050781 C 10.496094 98.113281 10.4375 98.191406 10.402344 98.285156 C 10.34375 98.148438 10.246094 98.050781 10.105469 97.992188 C 10.226562 97.828125 10.167969 97.730469 9.929688 97.695312 C 9.78125 97.828125 9.644531 97.828125 9.515625 97.695312 C 9.179688 98.179688 9 98.140625 8.984375 97.578125 C 8.878906 97.742188 8.820312 97.722656 8.804688 97.519531 C 8.988281 97.324219 8.949219 97.1875 8.6875 97.105469 C 8.628906 97.332031 8.570312 97.609375 8.511719 97.929688 C 8.359375 97.804688 8.320312 97.648438 8.390625 97.457031 C 8.195312 97.144531 8 97.144531 7.800781 97.457031 C 7.753906 97.347656 7.675781 97.269531 7.566406 97.222656 C 7.429688 97.28125 7.292969 97.320312 7.152344 97.339844 C 7.152344 96.75 7.152344 96.160156 7.152344 95.566406 Z M 7.152344 95.566406 "/>
<path style=" stroke:none;fill-rule:evenodd;fill:rgb(92.156863%,72.54902%,0.784314%);fill-opacity:1;" d="M 14.363281 95.566406 C 22.242188 95.566406 30.121094 95.566406 38.003906 95.566406 C 38.003906 95.6875 38.003906 95.804688 38.003906 95.921875 C 37.875 95.917969 37.757812 95.878906 37.648438 95.804688 C 37.589844 95.933594 37.550781 96.050781 37.53125 96.160156 C 37.320312 95.820312 37.101562 95.777344 36.878906 96.039062 C 36.167969 96.242188 35.457031 96.441406 34.75 96.632812 C 34.421875 96.585938 34.109375 96.585938 33.804688 96.632812 C 33.726562 96.550781 33.648438 96.472656 33.570312 96.394531 C 33.496094 96.585938 33.378906 96.742188 33.214844 96.867188 C 33.039062 96.5625 32.785156 96.464844 32.445312 96.570312 C 32.484375 96.613281 32.527344 96.652344 32.566406 96.691406 C 32.34375 96.773438 32.167969 96.714844 32.03125 96.511719 C 31.988281 96.621094 31.910156 96.703125 31.796875 96.75 C 31.441406 96.636719 31.421875 96.714844 31.738281 96.984375 C 31.640625 97.09375 31.523438 97.171875 31.382812 97.222656 C 31.214844 97.050781 31.074219 96.855469 30.96875 96.632812 C 30.882812 96.765625 30.78125 96.765625 30.671875 96.632812 C 30.683594 96.804688 30.566406 96.941406 30.320312 97.042969 C 30.152344 97.117188 29.996094 97.09375 29.847656 96.984375 C 29.6875 97.125 29.546875 97.285156 29.433594 97.457031 C 29.265625 97.089844 29.066406 97.050781 28.839844 97.339844 C 28.804688 97.246094 28.746094 97.167969 28.664062 97.105469 C 28.546875 97.261719 28.429688 97.261719 28.308594 97.105469 C 28.179688 97.238281 28.21875 97.335938 28.429688 97.398438 C 28.320312 97.445312 28.222656 97.503906 28.132812 97.578125 C 28.105469 97.40625 28.046875 97.25 27.957031 97.105469 C 27.558594 97.019531 27.183594 97.097656 26.832031 97.339844 C 26.5 97.257812 26.167969 97.199219 25.828125 97.164062 C 25.769531 97.105469 25.710938 97.042969 25.648438 96.984375 C 25.53125 97.042969 25.394531 97.0625 25.238281 97.042969 C 25.378906 97.121094 25.378906 97.179688 25.238281 97.222656 C 25.15625 97.144531 25.078125 97.066406 25 96.984375 C 24.628906 97.390625 24.273438 97.351562 23.9375 96.867188 C 23.6875 96.929688 23.46875 97.050781 23.285156 97.222656 C 23.101562 97.027344 22.90625 96.988281 22.695312 97.105469 C 22.566406 96.828125 22.410156 96.828125 22.222656 97.105469 C 22.015625 97.050781 22.035156 96.992188 22.28125 96.925781 C 22.121094 96.726562 21.941406 96.707031 21.75 96.867188 C 21.390625 96.574219 21.035156 96.574219 20.6875 96.867188 C 20.464844 96.59375 20.265625 96.59375 20.09375 96.867188 C 19.886719 96.816406 19.90625 96.757812 20.152344 96.691406 C 19.894531 96.671875 19.679688 96.574219 19.503906 96.394531 C 19.464844 96.472656 19.425781 96.550781 19.386719 96.632812 C 19.148438 96.292969 18.890625 96.253906 18.617188 96.511719 C 18.304688 96.316406 17.988281 96.121094 17.671875 95.921875 C 17.351562 96.003906 17.054688 95.925781 16.785156 95.6875 C 16.613281 95.832031 16.433594 95.832031 16.253906 95.6875 C 15.9375 95.921875 15.605469 95.921875 15.25 95.6875 C 15.003906 95.816406 14.75 95.835938 14.480469 95.746094 C 14.414062 95.699219 14.375 95.640625 14.363281 95.566406 Z M 14.363281 95.566406 "/>
<path style=" stroke:none;fill-rule:evenodd;fill:rgb(92.156863%,76.862745%,0.784314%);fill-opacity:1;" d="M 38.003906 99.351562 C 38.003906 110.539062 38.003906 121.730469 38.003906 132.917969 C 27.699219 132.957031 17.414062 132.917969 7.152344 132.800781 C 7.152344 120.980469 7.152344 109.160156 7.152344 97.339844 C 7.292969 97.320312 7.429688 97.28125 7.566406 97.222656 C 7.675781 97.269531 7.753906 97.347656 7.800781 97.457031 C 8 97.144531 8.195312 97.144531 8.390625 97.457031 C 8.320312 97.648438 8.359375 97.804688 8.511719 97.929688 C 8.570312 97.609375 8.628906 97.332031 8.6875 97.105469 C 8.949219 97.1875 8.988281 97.324219 8.804688 97.519531 C 8.820312 97.722656 8.878906 97.742188 8.984375 97.578125 C 9 98.140625 9.179688 98.179688 9.515625 97.695312 C 9.644531 97.828125 9.78125 97.828125 9.929688 97.695312 C 10.167969 97.730469 10.226562 97.828125 10.105469 97.992188 C 10.246094 98.050781 10.34375 98.148438 10.402344 98.285156 C 10.4375 98.191406 10.496094 98.113281 10.578125 98.050781 C 10.730469 98.25 10.925781 98.386719 11.171875 98.464844 C 11.128906 98.503906 11.089844 98.542969 11.050781 98.582031 C 11.246094 98.644531 11.402344 98.585938 11.523438 98.402344 C 11.554688 98.699219 11.613281 98.972656 11.703125 99.230469 C 11.738281 99.046875 11.839844 98.910156 11.996094 98.816406 C 11.824219 98.734375 11.746094 98.597656 11.761719 98.402344 C 11.949219 98.382812 12.109375 98.441406 12.234375 98.582031 C 12.195312 98.621094 12.15625 98.660156 12.117188 98.699219 C 12.332031 98.957031 12.550781 99.210938 12.765625 99.46875 C 12.796875 99.335938 12.855469 99.21875 12.941406 99.113281 C 13.257812 99.429688 13.574219 99.429688 13.890625 99.113281 C 13.851562 99.316406 13.910156 99.511719 14.066406 99.703125 C 14.113281 99.652344 14.175781 99.609375 14.242188 99.585938 C 14.402344 99.726562 14.542969 99.882812 14.65625 100.058594 C 14.773438 99.847656 14.910156 99.648438 15.070312 99.46875 C 15.210938 99.519531 15.328125 99.597656 15.425781 99.703125 C 15.335938 99.847656 15.234375 99.847656 15.128906 99.703125 C 15.074219 99.875 14.976562 100.011719 14.835938 100.117188 C 15.136719 100.363281 15.410156 100.34375 15.660156 100.058594 C 16.023438 100.074219 16.378906 100.074219 16.726562 100.058594 C 16.84375 100.136719 16.960938 100.214844 17.082031 100.296875 C 17.160156 100.175781 17.238281 100.058594 17.316406 99.941406 C 17.488281 100.054688 17.648438 100.015625 17.789062 99.824219 C 17.828125 100 17.828125 100.15625 17.789062 100.296875 C 17.90625 100.238281 18.027344 100.175781 18.144531 100.117188 C 18 100.011719 18 99.914062 18.144531 99.824219 C 18.273438 99.960938 18.371094 100.117188 18.441406 100.296875 C 18.488281 100.242188 18.546875 100.203125 18.617188 100.175781 C 18.839844 100.355469 19.078125 100.515625 19.328125 100.648438 C 19.292969 100.46875 19.292969 100.269531 19.328125 100.058594 C 19.484375 100.375 19.640625 100.375 19.800781 100.058594 C 19.90625 100.3125 20.042969 100.550781 20.210938 100.769531 C 20.257812 100.660156 20.316406 100.5625 20.390625 100.472656 C 20.292969 100.4375 20.214844 100.378906 20.152344 100.296875 C 20.40625 100.226562 20.621094 100.109375 20.804688 99.941406 C 20.835938 100.222656 20.957031 100.300781 21.160156 100.175781 C 21.375 100.429688 21.550781 100.429688 21.691406 100.175781 C 21.855469 100.480469 21.953125 100.441406 21.984375 100.058594 C 22.105469 100.15625 22.242188 100.199219 22.398438 100.175781 C 22.382812 100.300781 22.402344 100.417969 22.457031 100.53125 C 22.730469 100.121094 23.066406 100.082031 23.464844 100.414062 C 23.152344 100.589844 23.191406 100.671875 23.582031 100.648438 C 23.554688 100.511719 23.59375 100.394531 23.699219 100.296875 C 24.054688 100.453125 24.410156 100.453125 24.761719 100.296875 C 24.84375 100.359375 24.90625 100.4375 24.941406 100.53125 C 25.148438 100.398438 25.363281 100.28125 25.589844 100.175781 C 25.792969 100.332031 25.929688 100.527344 26.003906 100.769531 C 26.128906 100.6875 26.269531 100.628906 26.417969 100.589844 C 26.324219 100.554688 26.242188 100.496094 26.183594 100.414062 C 26.476562 100.242188 26.734375 100.285156 26.949219 100.53125 C 27.3125 100.1875 27.546875 100.269531 27.660156 100.769531 C 27.730469 100.535156 27.847656 100.496094 28.015625 100.648438 C 28.191406 100.5625 28.210938 100.460938 28.074219 100.355469 C 28.378906 100.328125 28.675781 100.269531 28.960938 100.175781 C 29.070312 100.730469 29.246094 100.769531 29.492188 100.296875 C 29.5625 100.320312 29.621094 100.359375 29.667969 100.414062 C 29.988281 100.230469 30.324219 100.074219 30.671875 99.941406 C 30.808594 99.976562 30.90625 100.058594 30.96875 100.175781 C 31.171875 100.054688 31.289062 100.132812 31.324219 100.414062 C 31.523438 100.152344 31.757812 100.074219 32.03125 100.175781 C 32.175781 99.667969 32.332031 99.628906 32.507812 100.058594 C 32.597656 99.898438 32.734375 99.800781 32.917969 99.761719 C 32.777344 99.65625 32.777344 99.558594 32.917969 99.46875 C 33.042969 99.632812 33.203125 99.75 33.390625 99.824219 C 33.535156 99.78125 33.535156 99.722656 33.390625 99.644531 C 33.542969 99.566406 33.683594 99.585938 33.804688 99.703125 C 33.9375 99.523438 34.113281 99.445312 34.339844 99.46875 C 34.3125 99.605469 34.351562 99.726562 34.457031 99.824219 C 34.613281 99.726562 34.75 99.609375 34.871094 99.46875 C 34.988281 99.601562 35.070312 99.5625 35.105469 99.351562 C 35.222656 99.46875 35.34375 99.585938 35.460938 99.703125 C 35.742188 99.542969 36 99.582031 36.230469 99.824219 C 35.914062 99.941406 35.914062 100.058594 36.230469 100.175781 C 36.359375 100.03125 36.515625 99.933594 36.703125 99.882812 C 36.574219 99.769531 36.4375 99.671875 36.289062 99.585938 C 36.207031 99.488281 36.226562 99.410156 36.347656 99.351562 C 36.589844 99.582031 36.785156 99.582031 36.9375 99.351562 C 37.140625 99.53125 37.378906 99.648438 37.648438 99.703125 C 37.695312 99.613281 37.714844 99.496094 37.707031 99.351562 C 37.796875 99.480469 37.894531 99.480469 38.003906 99.351562 Z M 38.003906 99.351562 "/>
<path style=" stroke:none;fill-rule:evenodd;fill:rgb(99.607843%,86.666667%,0%);fill-opacity:1;" d="M 7.152344 132.800781 C 17.414062 132.917969 27.699219 132.957031 38.003906 132.917969 C 38.003906 139.65625 38.003906 146.394531 38.003906 153.132812 C 62.746094 153.132812 87.488281 153.132812 112.234375 153.132812 C 112.234375 163.457031 112.234375 173.777344 112.234375 184.101562 C 77.167969 184.101562 42.101562 184.101562 7.03125 184.101562 C 6.992188 166.980469 7.03125 149.882812 7.152344 132.800781 Z M 7.152344 132.800781 "/>
<path style=" stroke:none;fill-rule:evenodd;fill:rgb(23.529412%,66.666667%,27.843137%);fill-opacity:1;" d="M 140.484375 132.800781 C 149.203125 137.8125 157.875 142.914062 166.488281 148.109375 C 166.742188 148.277344 167.019531 148.375 167.316406 148.402344 C 160.503906 160.375 153.628906 172.3125 146.691406 184.21875 C 135.210938 184.101562 123.726562 184.0625 112.234375 184.101562 C 112.234375 173.777344 112.234375 163.457031 112.234375 153.132812 C 117.789062 153.132812 123.34375 153.132812 128.902344 153.132812 C 132.71875 146.324219 136.582031 139.542969 140.484375 132.800781 Z M 140.484375 132.800781 "/>
</g>
</svg>
