<?xml version="1.0" encoding="UTF-8"?>
<svg xmlns="http://www.w3.org/2000/svg" xmlns:xlink="http://www.w3.org/1999/xlink" width="200px" height="200px" viewBox="0 0 200 200" version="1.1">
<g id="surface1">
<path style=" stroke:none;fill-rule:evenodd;fill:rgb(82.745098%,21.960784%,20%);fill-opacity:1;" d="M 170.59375 96.375 C 170.59375 136 139.1875 168.125 100.449219 168.125 C 61.710938 168.125 30.3125 136 30.3125 96.375 C 30.3125 56.75 61.710938 24.625 100.449219 24.625 C 139.1875 24.625 170.59375 56.75 170.59375 96.375 "/>
<path style=" stroke:none;fill-rule:nonzero;fill:rgb(93.72549%,23.921569%,22.745098%);fill-opacity:1;" d="M 33.164062 114.144531 C 33.164062 114.144531 28.085938 39.324219 97.023438 37.1875 L 92.210938 29.167969 L 54.800781 41.667969 L 44.175781 53.960938 L 34.824219 71.867188 L 29.480469 92.710938 L 31.085938 106.605469 "/>
<path style=" stroke:none;fill-rule:nonzero;fill:rgb(13.72549%,12.156863%,12.54902%);fill-opacity:1;" d="M 52.40625 47.4375 C 40.09375 60.03125 32.480469 77.417969 32.480469 96.648438 C 32.480469 115.882812 40.105469 133.273438 52.40625 145.855469 C 64.707031 158.4375 81.6875 166.210938 100.449219 166.210938 C 119.210938 166.210938 136.179688 158.445312 148.492188 145.855469 C 160.804688 133.269531 168.417969 115.875 168.417969 96.648438 C 168.417969 77.425781 160.792969 60.023438 148.492188 47.4375 C 136.195312 34.851562 119.210938 27.082031 100.449219 27.082031 C 81.6875 27.082031 64.71875 34.851562 52.40625 47.4375 Z M 49.292969 148.90625 C 36.210938 135.53125 28.132812 117.042969 28.132812 96.65625 C 28.132812 76.269531 36.21875 57.78125 49.292969 44.40625 C 62.367188 31.03125 80.46875 22.730469 100.449219 22.738281 C 120.429688 22.742188 138.53125 31.03125 151.605469 44.40625 C 164.679688 57.78125 172.773438 76.269531 172.773438 96.65625 C 172.773438 117.042969 164.6875 135.53125 151.605469 148.90625 C 138.523438 162.28125 120.429688 170.574219 100.449219 170.574219 C 80.46875 170.574219 62.367188 162.28125 49.292969 148.90625 "/>
<path style=" stroke:none;fill-rule:evenodd;fill:rgb(94.117647%,83.921569%,71.764706%);fill-opacity:1;" d="M 129.976562 96.773438 L 119.351562 98.382812 L 104.914062 99.988281 L 95.5625 100.257812 L 86.476562 99.988281 L 79.523438 97.851562 L 73.382812 91.164062 L 68.570312 77.539062 L 67.507812 74.601562 L 61.09375 72.460938 L 57.34375 66.320312 L 54.625 57.5 L 57.5625 49.75 L 64.511719 47.34375 L 70.125 50.019531 L 72.800781 55.894531 L 76.007812 55.355469 L 77.070312 54.019531 L 76.007812 47.875 L 75.738281 40.125 L 77.34375 29.5 L 77.28125 23.394531 L 82.15625 15.605469 L 90.707031 9.460938 L 105.65625 2.980469 L 122.21875 5.386719 L 136.65625 15.804688 L 143.34375 26.429688 L 147.617188 34.179688 L 148.679688 53.417969 L 145.476562 69.980469 L 139.601562 84.667969 L 133.988281 92.417969 "/>
<path style=" stroke:none;fill-rule:evenodd;fill:rgb(20%,31.372549%,38.039216%);fill-opacity:1;" d="M 120.886719 143 L 82.675781 144.605469 L 82.675781 151.019531 L 85.882812 173.457031 L 84.273438 175.332031 L 57.5625 166.25 L 55.6875 163.042969 L 53.011719 132.855469 L 46.867188 114.6875 L 45.53125 110.414062 L 66.90625 95.726562 L 73.59375 93.050781 L 79.46875 100.261719 L 84.542969 104.804688 L 90.417969 106.679688 L 93.085938 107.480469 L 96.292969 121.375 L 98.699219 124.3125 L 104.84375 122.175781 L 100.570312 130.457031 L 123.820312 141.414062 L 120.882812 143.019531 "/>
<path style=" stroke:none;fill-rule:evenodd;fill:rgb(42.745098%,41.960784%,42.745098%);fill-opacity:1;" d="M 57.5625 49.75 L 64.511719 47.34375 L 70.125 50.019531 L 72.800781 55.894531 L 76.007812 55.355469 L 76.804688 52.148438 L 75.199219 46.007812 L 76.804688 31.304688 L 75.46875 23.289062 L 80.28125 17.675781 L 90.699219 9.394531 L 87.761719 5.394531 L 73.0625 12.605469 L 66.917969 17.417969 L 63.445312 24.898438 L 58.101562 32.113281 L 56.492188 40.664062 L 57.554688 49.75 "/>
<path style=" stroke:none;fill-rule:evenodd;fill:rgb(86.27451%,85.098039%,84.705882%);fill-opacity:1;" d="M 68.511719 24.625 C 68.511719 24.625 72.511719 14.738281 88.554688 9.9375 C 104.601562 5.136719 89.355469 6.460938 89.355469 6.460938 L 71.980469 13.148438 L 65.292969 19.835938 L 62.355469 25.179688 L 68.5 24.644531 M 60.5 47.875 C 60.5 47.875 54.886719 29.167969 76.269531 26.5 L 75.46875 23.292969 L 60.78125 26.769531 L 56.507812 40.664062 L 57.570312 49.75 L 60.507812 47.875 "/>
<path style=" stroke:none;fill-rule:evenodd;fill:rgb(96.862745%,89.411765%,80.392157%);fill-opacity:1;" d="M 69.050781 72.726562 L 72.550781 69.335938 C 72.621094 70.363281 73.382812 71.210938 74.394531 71.394531 C 74.664062 73.269531 75.457031 90.101562 86.894531 99.1875 C 87.945312 100.019531 78.34375 97.851562 78.34375 97.851562 L 69.792969 84.488281 M 118.15625 67.644531 C 118.15625 67.644531 118.78125 59.542969 120.96875 60.167969 C 123.15625 60.792969 123.15625 62.980469 123.15625 62.980469 C 123.15625 62.980469 117.855469 66.40625 118.167969 67.65625 "/>
<path style=" stroke:none;fill-rule:nonzero;fill:rgb(96.862745%,89.411765%,80.392157%);fill-opacity:1;" d="M 140.398438 37.980469 C 140.398438 37.980469 135.992188 38.917969 135.585938 42.792969 C 135.179688 46.667969 140.398438 43.59375 141.199219 43.332031 M 108.125 38.25 C 108.125 38.25 102.25 39.050781 102.25 42.792969 C 102.25 46.539062 108.9375 46.269531 110.800781 44.667969 "/>
<path style=" stroke:none;fill-rule:evenodd;fill:rgb(96.862745%,89.411765%,80.392157%);fill-opacity:1;" d="M 71.71875 55.625 C 71.71875 55.625 61.5625 49.476562 60.5 55.355469 C 59.4375 61.238281 57.023438 65.511719 62.105469 71.65625 L 58.632812 70.59375 L 55.425781 62.3125 L 54.363281 54.292969 L 60.507812 47.882812 L 67.457031 48.417969 L 71.457031 51.625 L 71.726562 55.625 M 76.539062 38.789062 C 76.539062 38.789062 81.082031 15.273438 104.0625 10.664062 C 122.980469 6.925781 132.917969 11.460938 136.664062 15.738281 C 136.664062 15.738281 119.824219 -4.300781 103.789062 1.84375 C 87.75 7.988281 76 19.34375 76.25 26.488281 L 76.519531 38.78125 M 138.519531 18.46875 C 138.519531 18.46875 130.769531 18.199219 130.5 25.15625 C 130.527344 25.898438 130.707031 26.625 131.03125 27.292969 C 131.03125 27.292969 137.179688 20.34375 140.917969 24.085938 M 104.585938 28.011719 C 104.585938 28.011719 103.257812 17.351562 94.164062 23.550781 C 88.289062 27.550781 88.820312 33.175781 89.886719 34.175781 C 90.957031 35.175781 90.667969 37.394531 91.480469 35.925781 C 92.292969 34.457031 92.023438 29.636719 94.96875 28.300781 C 97.914062 26.960938 102.71875 25.46875 104.59375 27.957031 "/>
<path style=" stroke:none;fill-rule:evenodd;fill:rgb(28.627451%,44.705882%,54.509804%);fill-opacity:1;" d="M 79.46875 100.25 L 54.34375 111.476562 C 54.34375 111.476562 64.761719 152.894531 59.417969 165.726562 L 55.667969 164.386719 L 55.398438 148.617188 L 48.476562 118.75 L 45.539062 110.46875 L 71.789062 92.832031 L 79.539062 100.3125 M 82.0625 123.15625 L 85.625 127.507812 L 85.625 143.539062 L 81.351562 143.539062 L 80.820312 131.039062 C 80.820312 129.699219 81.351562 124.894531 81.351562 124.894531 M 82.144531 145.9375 L 70.117188 146.46875 L 73.59375 148.875 L 82.144531 150.210938 "/>
<path style=" stroke:none;fill-rule:evenodd;fill:rgb(20%,31.372549%,38.039216%);fill-opacity:1;" d="M 123.292969 143.269531 L 133.179688 143 L 135.585938 167.585938 L 125.429688 168.925781 L 123.292969 143.273438 "/>
<path style=" stroke:none;fill-rule:evenodd;fill:rgb(20%,31.372549%,38.039216%);fill-opacity:1;" d="M 125.96875 143.269531 L 140.929688 142.46875 L 147.074219 126.167969 C 147.074219 125.367188 152.417969 103.730469 152.417969 103.730469 L 140.394531 91.167969 L 137.988281 89.03125 L 131.574219 95.445312 L 131.574219 120.292969 L 125.960938 143.273438 "/>
<path style=" stroke:none;fill-rule:evenodd;fill:rgb(28.627451%,44.705882%,54.509804%);fill-opacity:1;" d="M 132.648438 141.398438 L 123.300781 143.273438 L 124.636719 150.757812 C 128.113281 152.363281 133.988281 148.082031 133.988281 148.082031 M 132.914062 94.644531 L 151.617188 108.539062 L 152.15625 102.125 L 137.992188 89.03125 L 132.917969 94.644531 "/>
<path style=" stroke:none;fill-rule:evenodd;fill:rgb(100%,100%,100%);fill-opacity:1;" d="M 91.417969 195.914062 L 85.886719 173.460938 L 83.136719 156.898438 L 82.679688 144.605469 L 107.71875 143.273438 L 123.300781 143.273438 L 121.882812 171.398438 L 124.289062 193.042969 L 124.019531 197.042969 L 103.707031 198.648438 L 91.414062 195.976562 "/>
<path style=" stroke:none;fill-rule:evenodd;fill:rgb(86.27451%,85.098039%,84.705882%);fill-opacity:1;" d="M 119.8125 143 C 119.8125 143 118.476562 170.792969 122.488281 190.5 C 122.488281 190.5 114.46875 195.574219 102.710938 196.914062 L 125.148438 196.113281 L 127.824219 194.507812 L 124.617188 150.679688 L 123.820312 141.324219 "/>
<path style=" stroke:none;fill-rule:evenodd;fill:rgb(100%,100%,100%);fill-opacity:1;" d="M 136.042969 165.449219 L 146.460938 162.511719 L 166.238281 161.449219 L 169.175781 152.363281 L 163.832031 136.59375 L 157.6875 135.792969 L 149.136719 138.46875 L 140.929688 142.46875 L 136.574219 141.667969 L 133.179688 143 "/>
<path style=" stroke:none;fill-rule:evenodd;fill:rgb(86.27451%,85.098039%,84.705882%);fill-opacity:1;" d="M 135.855469 160.101562 C 135.855469 160.101562 142.804688 156.894531 143.875 157.164062 L 140.9375 142.460938 L 144.414062 141.125 L 146.820312 156.625 L 163.117188 157.425781 C 163.117188 157.425781 166.324219 151.28125 165.523438 144.925781 L 168.460938 153.476562 L 168.730469 158.289062 L 164.457031 164.699219 L 159.644531 165.761719 L 151.625 165.492188 L 148.949219 162.019531 L 139.601562 163.355469 L 136.664062 164.417969 "/>
<path style=" stroke:none;fill-rule:nonzero;fill:rgb(100%,100%,100%);fill-opacity:1;" d="M 125.351562 141.125 L 119.476562 126.164062 L 113.332031 117.351562 C 113.332031 117.351562 114.667969 113.601562 116.539062 113.601562 L 122.679688 113.601562 L 128.554688 115.738281 L 128.023438 125.625 L 125.351562 141.125 "/>
<path style=" stroke:none;fill-rule:evenodd;fill:rgb(86.27451%,85.098039%,84.705882%);fill-opacity:1;" d="M 126.5 136.0625 C 126.5 136.0625 119.019531 121.625 119.019531 119.5 C 119.019531 119.5 120.355469 116.292969 122.226562 117.09375 C 124.09375 117.894531 128.101562 120.03125 128.101562 120.03125 L 128.101562 114.957031 L 119.011719 113.082031 L 112.867188 113.882812 L 123.289062 138.46875 L 125.425781 138.738281 "/>
<path style=" stroke:none;fill-rule:nonzero;fill:rgb(100%,100%,100%);fill-opacity:1;" d="M 93.8125 100.78125 L 86.414062 99.96875 L 79.460938 97.832031 L 79.460938 100.238281 L 82.855469 103.988281 L 93.480469 108.800781 "/>
<path style=" stroke:none;fill-rule:evenodd;fill:rgb(86.27451%,85.098039%,84.705882%);fill-opacity:1;" d="M 81.875 101.585938 C 81.875 101.585938 90.15625 105.0625 92.832031 104.261719 L 93.101562 107.46875 L 85.617188 105.867188 L 81.074219 102.664062 L 81.875 101.601562 "/>
<path style=" stroke:none;fill-rule:evenodd;fill:rgb(82.745098%,21.960784%,20%);fill-opacity:1;" d="M 136.011719 114.519531 C 131.480469 114.394531 127.386719 113.851562 123.792969 112.832031 C 124.042969 111.363281 123.582031 109.917969 123.949219 108.855469 C 124.949219 108.136719 126.625 108.148438 128.136719 107.980469 C 126.824219 107.335938 124.992188 107.085938 123.488281 107.457031 C 123.449219 106.4375 122.988281 105.804688 122.71875 105.007812 C 125.269531 104.09375 131.28125 98.132812 134.667969 100.105469 C 136.28125 101.042969 136.96875 106.417969 137.09375 109.019531 C 137.199219 111.179688 136.90625 113.367188 136.011719 114.519531 "/>
<path style="fill:none;stroke-width:0.257;stroke-linecap:butt;stroke-linejoin:miter;stroke:rgb(82.745098%,21.960784%,20%);stroke-opacity:1;stroke-miterlimit:4;" d="M 21.761875 18.323125 C 21.036875 18.303125 20.381875 18.21625 19.806875 18.053125 C 19.846875 17.818125 19.773125 17.586875 19.831875 17.416875 C 19.991875 17.301875 20.26 17.30375 20.501875 17.276875 C 20.291875 17.17375 19.99875 17.13375 19.758125 17.193125 C 19.751875 17.03 19.678125 16.92875 19.635 16.80125 C 20.043125 16.655 21.005 15.70125 21.546875 16.016875 C 21.805 16.166875 21.915 17.026875 21.935 17.443125 C 21.951875 17.78875 21.905 18.13875 21.761875 18.323125 Z M 21.761875 18.323125 " transform="matrix(6.25,0,0,6.25,0,0)"/>
<path style=" stroke:none;fill-rule:evenodd;fill:rgb(82.745098%,21.960784%,20%);fill-opacity:1;" d="M 114.332031 107.105469 L 114.292969 108.144531 C 112.875 109.082031 110.59375 109.0625 109.042969 109.84375 C 111.332031 109.945312 113.136719 110.492188 114.699219 111.28125 L 114.601562 113.875 C 112.007812 115.648438 109.636719 118.300781 106.582031 119.960938 C 105.144531 120.75 100.070312 122.773438 98.53125 122.417969 C 97.65625 122.21875 97.582031 121.136719 97.238281 120.117188 C 96.5 117.929688 94.800781 114.476562 94.644531 111.195312 C 94.457031 107.050781 94.039062 100.113281 98.5 100.960938 C 102.191406 101.746094 105.75 103.046875 109.074219 104.832031 C 110.78125 105.769531 111.761719 106.914062 114.351562 107.113281 "/>
<path style="fill:none;stroke-width:0.257;stroke-linecap:butt;stroke-linejoin:miter;stroke:rgb(82.745098%,21.960784%,20%);stroke-opacity:1;stroke-miterlimit:4;" d="M 18.293125 17.136875 L 18.286875 17.303125 C 18.06 17.453125 17.695 17.45 17.446875 17.575 C 17.813125 17.59125 18.101875 17.67875 18.351875 17.805 L 18.33625 18.22 C 17.92125 18.50375 17.541875 18.928125 17.053125 19.19375 C 16.823125 19.32 16.01125 19.64375 15.765 19.586875 C 15.625 19.555 15.613125 19.381875 15.558125 19.21875 C 15.44 18.86875 15.168125 18.31625 15.143125 17.79125 C 15.113125 17.128125 15.04625 16.018125 15.76 16.15375 C 16.350625 16.279375 16.92 16.4875 17.451875 16.773125 C 17.725 16.923125 17.881875 17.10625 18.29625 17.138125 Z M 18.293125 17.136875 " transform="matrix(6.25,0,0,6.25,0,0)"/>
<path style=" stroke:none;fill-rule:evenodd;fill:rgb(82.745098%,21.960784%,20%);fill-opacity:1;" d="M 116.90625 112.050781 C 116.511719 109.800781 116.050781 109.148438 116.230469 107.175781 C 122.25 103.164062 123.375 114.0625 116.90625 112.050781 "/>
<path style="fill:none;stroke-width:0.257;stroke-linecap:butt;stroke-linejoin:miter;stroke:rgb(82.745098%,21.960784%,20%);stroke-opacity:1;stroke-miterlimit:4;" d="M 18.705 17.928125 C 18.641875 17.568125 18.568125 17.46375 18.596875 17.148125 C 19.56 16.50625 19.74 18.25 18.705 17.928125 Z M 18.705 17.928125 " transform="matrix(6.25,0,0,6.25,0,0)"/>
<path style=" stroke:none;fill-rule:evenodd;fill:rgb(93.72549%,23.921569%,22.745098%);fill-opacity:1;" d="M 125.625 113.875 C 125.625 113.875 123.75 111.199219 125.085938 110.398438 C 126.425781 109.601562 127.761719 110.398438 128.5625 109.0625 C 129.363281 107.726562 128.5625 106.925781 128.832031 105.3125 C 129.101562 103.699219 130.4375 103.4375 131.769531 103.175781 C 133.101562 102.914062 136.84375 102.375 137.382812 103.710938 L 135.773438 98.898438 L 132.570312 97.835938 L 122.414062 103.710938 L 121.875 106.648438 L 121.875 112.523438 M 97.5 122.6875 L 96.460938 110.1875 C 95.835938 103.96875 97.960938 105.050781 103.351562 105.050781 C 104.175781 105.050781 108.351562 106.03125 108.726562 106.65625 C 110.179688 109.632812 106.226562 108.96875 110.414062 111.21875 C 113.886719 113.113281 120.023438 110.070312 118.617188 105.855469 C 117.832031 104.917969 114.523438 105.5625 113.335938 104.949219 L 107.074219 101.699219 C 104.417969 100.324219 98.28125 98.3125 95.449219 100.238281 C 88.273438 105.113281 95.898438 117.3125 98.460938 122.398438 "/>
<path style=" stroke:none;fill-rule:evenodd;fill:rgb(13.72549%,12.156863%,12.54902%);fill-opacity:1;" d="M 104.59375 28.019531 C 97.3125 26.332031 93.695312 31.070312 91.480469 35.988281 C 89.511719 35.511719 90.230469 32.832031 90.855469 31.460938 C 92.105469 27.875 97.417969 23.105469 101.707031 23.75 C 103.554688 24.03125 106.054688 25.71875 104.65625 28.019531 M 140.082031 36.25 L 140.425781 36.261719 C 142.070312 39.679688 143.550781 43.304688 145.570312 46.261719 C 144.175781 49.5 135.039062 52.367188 135.175781 46.550781 C 137.148438 45.6875 140.5625 46.375 142.320312 45.269531 C 141.304688 42.488281 139.84375 40.117188 140.070312 36.1875 M 108.320312 36.398438 C 109.882812 39.261719 110.382812 42.273438 112.605469 44.429688 C 113.605469 45.40625 115.542969 46.59375 114.585938 49.304688 C 113.90625 50.351562 112.925781 51.167969 111.773438 51.648438 C 108.304688 52.675781 100.210938 51.863281 103.023438 47.539062 C 105.898438 47.664062 109.75 49.398438 111.898438 47.320312 C 110.25 44.695312 107.320312 39.476562 108.398438 36.40625 M 138.835938 65.5 C 133.613281 68.855469 127.789062 72.5 119.226562 71.664062 C 117.394531 70.074219 116.699219 66.539062 118.476562 64.195312 C 119.398438 65.78125 118.820312 68.710938 121.398438 69.148438 C 126.257812 69.980469 131.914062 66.179688 135.398438 64.851562 C 137.570312 61.195312 135.210938 59.851562 133.261719 57.5 C 129.261719 52.6875 123.90625 46.710938 124.101562 39.5 C 125.710938 38.332031 125.851562 41.289062 126.085938 41.824219 C 128.175781 46.699219 133.425781 52.949219 137.257812 57.136719 C 138.195312 58.167969 139.757812 59.15625 139.917969 59.835938 C 140.417969 61.820312 138.625 64.1875 138.832031 65.507812 M 69.894531 61.960938 C 68.257812 61.023438 67.867188 56.914062 65.945312 56.792969 C 63.195312 56.625 63.695312 62.136719 63.707031 65.355469 C 61.8125 63.636719 61.480469 58.355469 62.867188 55.636719 C 61.289062 54.863281 60.574219 56.492188 59.699219 57.074219 C 60.824219 48.875 71.699219 53.324219 69.886719 61.96875 M 142.105469 68.84375 C 139.605469 73.46875 136.230469 78.570312 129.09375 78.71875 C 128.949219 77.21875 128.84375 74.949219 129.101562 74.050781 C 134.554688 73.523438 137.925781 70.75 142.101562 68.84375 M 107.914062 71.84375 C 112.460938 74.238281 120.832031 74.492188 127.019531 74.3125 C 127.351562 75.667969 127.34375 77.34375 127.355469 79 C 119.398438 79.394531 110 77.4375 107.980469 71.84375 M 107.105469 76.304688 C 110.257812 84.210938 121.074219 83.304688 130.199219 83.082031 C 129.800781 84.105469 128.925781 85.320312 127.84375 85.757812 C 124.917969 87.007812 116.855469 87.851562 112.800781 85.695312 C 110.226562 84.320312 108.574219 81.230469 107.164062 79.417969 C 106.539062 78.542969 103.085938 76.304688 107.113281 76.292969 "/>
<path style=" stroke:none;fill-rule:evenodd;fill:rgb(50.588235%,69.019608%,76.862745%);fill-opacity:1;" d="M 138.398438 119.976562 L 126.789062 138.382812 C 128.625 132.980469 129.414062 123.945312 129.6875 117.042969 C 133.53125 115.242188 136.824219 117.449219 138.398438 119.980469 "/>
<path style=" stroke:none;fill-rule:evenodd;fill:rgb(13.72549%,12.156863%,12.54902%);fill-opacity:1;" d="M 158.273438 142.710938 C 154.136719 143.539062 151.230469 147.5625 147.199219 147.300781 C 149.417969 144.175781 153.300781 142.925781 158.273438 142.710938 M 160.101562 149.1875 C 156.726562 149.542969 152.769531 150.085938 149.351562 149.8125 C 150.976562 147.335938 157.207031 148.1875 160.101562 149.1875 M 161.269531 154.761719 C 157.480469 154.84375 152.769531 154.769531 149.167969 154.46875 C 151.292969 152.179688 158.8125 153.617188 161.269531 154.761719 "/>
<path style=" stroke:none;fill-rule:evenodd;fill:rgb(86.27451%,85.098039%,84.705882%);fill-opacity:1;" d="M 131.269531 170.039062 C 131.8125 174.789062 133.707031 179.617188 133.457031 184.824219 C 131.363281 185.53125 130.15625 186.148438 127.351562 186.136719 L 126.738281 170.71875 C 128.113281 170.8125 130.15625 169.730469 131.261719 170.09375 "/>
<path style=" stroke:none;fill-rule:evenodd;fill:rgb(94.117647%,83.921569%,71.764706%);fill-opacity:1;" d="M 125.164062 99.914062 C 123.261719 101.164062 121.636719 102.707031 119.8125 104.039062 C 115.761719 104.238281 113.550781 103.757812 110.574219 101.429688 C 110.625 101.242188 110.925781 101.324219 110.929688 101.101562 C 115.269531 103.039062 120.78125 100.3125 125.164062 99.914062 "/>
<path style=" stroke:none;fill-rule:evenodd;fill:rgb(50.588235%,69.019608%,76.862745%);fill-opacity:1;" d="M 102.394531 129.476562 C 103.582031 124.3125 108.257812 121.636719 112.492188 118.789062 C 116.867188 124.351562 119.53125 131.476562 122.460938 138.375 C 115.539062 136.289062 108.460938 132.898438 102.398438 129.46875 "/>
<path style=" stroke:none;fill-rule:evenodd;fill:rgb(13.72549%,12.156863%,12.54902%);fill-opacity:1;" d="M 126.75 170.726562 C 126.574219 174.945312 127.164062 181.726562 127.363281 186.144531 C 130.175781 186.148438 131.375 185.53125 133.46875 184.832031 C 133.707031 179.617188 131.820312 174.800781 131.28125 170.042969 C 130.175781 169.75 128.136719 170.824219 126.757812 170.667969 Z M 83.050781 146.726562 C 84.898438 163.738281 87.582031 177.976562 92.5 193.101562 C 103.414062 196.414062 116.5625 196.699219 126.210938 193.710938 C 124.445312 185.210938 125.210938 174.855469 124.179688 165.773438 L 122.730469 145.132812 C 111.042969 142.695312 94.523438 144.570312 83.054688 146.707031 Z M 125.550781 145.257812 C 125.449219 152.570312 125.875 159.769531 126.4375 167.085938 L 133.75 165.8125 C 132.90625 158.769531 133 150.84375 131.28125 144.613281 C 129.28125 144.632812 127.53125 144.585938 125.542969 145.257812 Z M 139.78125 144.082031 C 138.449219 143.769531 136.90625 144.070312 135.625 144.09375 L 138.125 162.875 C 140.125 162.9375 141.1875 162 142.84375 161.675781 C 142.929688 156.1875 142.363281 148.625 139.71875 144.082031 Z M 161.332031 163.769531 C 165.507812 162.757812 168.125 157.644531 166.957031 152.394531 C 166.175781 148.867188 164.78125 142.226562 163.289062 139.96875 C 162.1875 138.300781 159.195312 136.113281 156.804688 137.644531 C 152.917969 140.132812 146.074219 140.855469 143.242188 143.863281 C 144.664062 148.59375 145.105469 155.085938 145.695312 161.082031 C 150.550781 161.382812 156.519531 159.742188 160.554688 161.480469 C 157.742188 162.394531 154.082031 162.398438 151.648438 163.730469 C 153.636719 164.695312 158.300781 164.5 161.335938 163.761719 Z M 122.53125 138.394531 C 119.59375 131.5 116.9375 124.355469 112.5625 118.804688 C 108.324219 121.648438 103.65625 124.324219 102.460938 129.492188 C 108.523438 132.929688 115.605469 136.304688 122.523438 138.398438 Z M 129.757812 117.050781 C 129.480469 123.945312 128.695312 132.988281 126.855469 138.386719 C 131.230469 132.804688 134.773438 126.304688 138.46875 119.980469 C 136.894531 117.457031 133.59375 115.25 129.757812 117.042969 Z M 121.632812 114.136719 C 119.96875 113.949219 118.570312 116.042969 116.398438 115.136719 L 114.949219 116.8125 C 119.71875 122.5625 121.824219 130.710938 125.574219 137.460938 C 127.550781 130.976562 127.324219 123.867188 127.761719 116.789062 C 125.050781 116.960938 123.542969 114.332031 121.636719 114.132812 Z M 116.363281 107.1875 C 116.1875 109.15625 116.644531 109.800781 117.039062 112.0625 C 123.507812 114.085938 122.375 103.1875 116.363281 107.1875 Z M 109.1875 104.832031 C 105.863281 103.046875 102.304688 101.746094 98.613281 100.960938 C 94.148438 100.105469 94.570312 107.050781 94.757812 111.195312 C 94.90625 114.476562 96.613281 117.945312 97.351562 120.117188 C 97.699219 121.136719 97.773438 122.210938 98.644531 122.417969 C 100.179688 122.773438 105.25 120.75 106.695312 119.960938 C 109.757812 118.292969 112.117188 115.585938 114.710938 113.875 L 114.8125 111.28125 C 113.25 110.507812 111.449219 109.949219 109.15625 109.84375 C 110.71875 109.0625 112.992188 109.074219 114.40625 108.144531 L 114.445312 107.105469 C 111.855469 106.90625 110.882812 105.757812 109.167969 104.824219 Z M 82.5625 99.992188 C 80.25 102.34375 89.050781 105.542969 91.855469 105.71875 C 91.835938 104.230469 92.707031 102.832031 92.53125 101.761719 C 89.199219 101.175781 84.824219 101.5625 82.570312 99.992188 Z M 111.0625 101.09375 C 111.050781 101.324219 110.75 101.238281 110.707031 101.425781 C 113.679688 103.75 115.894531 104.238281 119.945312 104.03125 L 125.292969 99.90625 C 120.917969 100.300781 115.398438 103.019531 111.0625 101.09375 Z M 137.226562 109.03125 C 137.101562 106.417969 136.414062 101.054688 134.800781 100.117188 C 131.414062 98.144531 125.394531 104.105469 122.851562 105.019531 C 123.125 105.820312 123.585938 106.457031 123.617188 107.46875 C 125.117188 107.09375 126.960938 107.34375 128.269531 107.992188 C 126.757812 108.164062 125.144531 108.148438 124.082031 108.867188 C 123.707031 109.929688 124.167969 111.367188 123.925781 112.84375 C 127.511719 113.855469 131.613281 114.394531 136.144531 114.53125 C 137.019531 113.386719 137.332031 111.199219 137.226562 109.03125 Z M 78.664062 102.269531 C 77.9375 101.75 73.019531 95.355469 72.414062 95.617188 C 63.519531 99.117188 55.207031 105.179688 47.773438 110.929688 C 54.863281 126.132812 57.710938 144.761719 58.226562 162.710938 C 66.351562 166.507812 73.476562 171.980469 84.476562 172.550781 L 81.3125 147 C 78.542969 145.832031 74.574219 147.050781 71.988281 146.636719 C 71.960938 143.511719 75.945312 145.261719 76.273438 143.175781 C 76.523438 141.585938 74.085938 141.46875 74.882812 138.96875 C 76.90625 139.707031 77.96875 141.332031 80.132812 141.9375 C 82.105469 137.625 80.105469 129.988281 80.382812 126.3125 C 80.445312 125.636719 80.71875 122.5625 82.238281 123.101562 C 83.582031 123.574219 82.164062 131.289062 82.300781 134.695312 C 82.425781 137.835938 81.925781 140.945312 83.195312 142.855469 C 93.835938 141.40625 104.648438 140.46875 116.164062 140.15625 C 113.632812 139.070312 110.617188 138.03125 107.320312 136.179688 C 105.53125 135.179688 99.894531 133.074219 99.382812 131.367188 C 98.554688 128.664062 101.542969 127.21875 102.050781 124.898438 C 96.675781 127.835938 95.632812 122.085938 94.363281 118.023438 C 93.210938 114.335938 92.550781 111.585938 92.273438 109.460938 C 87.648438 107.257812 82.699219 105.085938 78.710938 102.195312 Z M 132.519531 96.394531 C 139.929688 92.800781 141.269531 109.832031 138.363281 115.304688 C 138.8125 116.945312 140.363281 117.570312 140.988281 119.039062 L 128.050781 140.679688 C 131.1875 138.726562 135.675781 140.332031 139.300781 138.804688 C 140.648438 138.273438 141.625 135.179688 142.648438 132.710938 C 145.460938 125.914062 148.414062 117.335938 149.726562 110.835938 C 150.019531 109.355469 150.832031 106.136719 150.648438 104.820312 C 150.324219 102.460938 147.132812 100.710938 145.5 99.195312 L 137.5 91.617188 C 136.230469 93.492188 133.511719 94.742188 132.476562 96.269531 Z M 61.59375 30.675781 C 58.0625 34.5625 58.800781 41.835938 59.230469 47.019531 C 65.605469 43.007812 74.082031 47.332031 74.007812 54.164062 C 77.054688 54.082031 75.144531 50.351562 74.59375 47.957031 C 72.792969 40.117188 77.632812 31.605469 74.8125 24.4375 C 69.34375 24.851562 64.855469 27.085938 61.601562 30.675781 Z M 86.855469 8.125 C 78.855469 10.386719 68.617188 16.199219 65.335938 23.375 C 67.882812 23 69.648438 21.726562 72.148438 21.5 C 73.101562 21.4375 74.335938 21.898438 75.429688 21.625 C 77.601562 21.085938 79.429688 16.21875 81.074219 14.40625 C 82.675781 12.636719 84.59375 11.882812 85.90625 10.269531 C 86.75 9.863281 88 9.894531 88.042969 8.625 C 87.667969 8.230469 87.292969 8 86.792969 8 Z M 128.460938 10.25 C 120.167969 5.582031 106.125 2.0625 97.300781 6.457031 C 90.175781 10.007812 80.550781 15.882812 77.269531 23.332031 C 80.332031 30.519531 76.363281 37.101562 76.105469 44.394531 C 75.96875 48.269531 77.929688 51.664062 78.082031 55.894531 C 77.03125 57.625 73.832031 57.832031 71.605469 57.71875 C 70.855469 53.980469 69.542969 49.78125 65.707031 49.355469 C 60.269531 48.761719 56.28125 53.269531 56.03125 57.980469 C 55.738281 63.519531 60.28125 72.699219 66.730469 72.0625 C 69.21875 71.8125 69.832031 69.3125 72.542969 69.34375 C 74.011719 72.28125 70.273438 73.199219 69.894531 75.292969 C 69.792969 75.835938 70.207031 77.957031 70.445312 78.949219 C 71.613281 83.789062 74.226562 90.042969 76.792969 93.726562 C 80.054688 98.394531 86.457031 99.101562 93.355469 99.554688 C 94.585938 96.90625 99.117188 97.117188 102.074219 97.820312 C 98.539062 96.417969 95.242188 93.019531 92.511719 90.007812 C 89.386719 86.554688 86.199219 82.851562 86.042969 78.335938 C 91.960938 86.550781 96.855469 93.726562 107.617188 97.335938 C 115.761719 100.070312 125.28125 96.085938 131.539062 91.6875 C 134.136719 89.863281 135.6875 86.960938 137.539062 84.3125 C 144.445312 74.3125 147.664062 60.1875 146.960938 46.4375 C 146.667969 40.769531 146.679688 35.125 144.773438 31.3125 C 142.789062 27.324219 136.0625 23.75 132.125 27.363281 C 131.394531 23.488281 135.398438 21.085938 140.101562 22.488281 C 136.75 18.164062 133.226562 12.960938 128.460938 10.273438 Z M 143.917969 138.167969 C 150.398438 134.945312 162.511719 129.492188 166.582031 138.179688 C 168.082031 141.382812 169.84375 146.792969 170.617188 150.101562 C 171.71875 154.761719 169.367188 164.5625 164.636719 166.132812 C 160.40625 167.507812 155.460938 167.429688 150.363281 166.40625 C 149.761719 165.90625 149.09375 165.03125 148.625 164.132812 C 144.980469 163.988281 141.574219 164.320312 138.699219 165.820312 C 138.976562 168.507812 137.148438 168.945312 135.449219 169.507812 C 134.179688 174.523438 137.980469 181.082031 137.074219 185.65625 C 136.425781 188.917969 132.414062 189.417969 129.46875 190.03125 C 129.375 191.90625 129.59375 193.355469 129.800781 194.886719 C 129.125 197.367188 126.101562 198.789062 123.238281 199.136719 C 113.8125 200.261719 99.5 200.78125 90.425781 197.511719 C 87.894531 191.304688 85.898438 183.761719 83.800781 176.667969 C 74.957031 177.605469 67.800781 172.855469 61.0625 169.730469 C 58.726562 168.648438 55.4375 168.042969 54.625 166.195312 C 53.78125 164.394531 54.125 160.945312 53.917969 157.695312 C 53.386719 149.382812 52.917969 141.351562 50.792969 132.832031 C 49.804688 129.007812 48.085938 125.644531 46.886719 121.957031 C 45.78125 118.542969 43.84375 114.332031 43.335938 110.917969 C 42.585938 105.875 47.335938 105.59375 50.375 103.40625 C 55.0625 100.03125 58.75 98.15625 63.84375 95.105469 C 65.34375 94.199219 69.894531 91.980469 70.40625 90.855469 C 71.429688 88.769531 68.644531 85.824219 67.90625 84.1875 C 66.71875 81.601562 66.113281 79.398438 65.945312 76.84375 C 61.675781 76.167969 58.445312 73.632812 56.488281 70.769531 C 53.257812 66.03125 51.011719 57.269531 53.8125 50.601562 C 54.03125 50.074219 55.0625 49.039062 55.289062 48.238281 C 55.601562 46.648438 54.6875 44.539062 54.632812 42.851562 C 54.335938 34.179688 56.101562 26.726562 61.929688 24.101562 C 64.304688 14.726562 72.773438 11.539062 80.761719 6.835938 C 83.75 5.085938 87.039062 3.960938 90.4375 2.710938 C 102.625 -1.773438 121.335938 -0.929688 131.457031 6.726562 C 135.742188 9.976562 142.605469 16.820312 145.054688 21.789062 C 151.539062 34.882812 151.074219 56.769531 146.542969 72.699219 C 145.9375 74.835938 145.042969 77.980469 143.820312 80.550781 C 142.957031 82.34375 140.289062 85.925781 140.613281 87.519531 C 140.945312 89.15625 146.707031 93.53125 147.945312 94.726562 C 150.167969 96.867188 154.394531 99.726562 154.738281 102.425781 C 155.113281 105.300781 153.46875 109.25 152.636719 112.03125 L 144.011719 138.15625 "/>
<path style=" stroke:none;fill-rule:evenodd;fill:rgb(96.862745%,89.411765%,80.392157%);fill-opacity:1;" d="M 100.667969 73.9375 C 101.019531 73.46875 102.957031 72.75 105.667969 74.0625 C 105.667969 74.0625 102.460938 74.601562 102.730469 79.9375 L 101.394531 79.667969 C 101.394531 79.667969 100.019531 74.820312 100.679688 73.929688 "/>
<path style=" stroke:none;fill-rule:evenodd;fill:rgb(11.372549%,9.803922%,9.803922%);fill-opacity:1;" d="M 124.101562 119.886719 C 124.101562 120.699219 123.445312 121.355469 122.632812 121.355469 C 121.820312 121.355469 121.164062 120.699219 121.164062 119.886719 C 121.164062 119.074219 121.820312 118.417969 122.632812 118.417969 C 123.445312 118.417969 124.101562 119.074219 124.101562 119.886719 M 125.5625 126.761719 C 125.5625 127.574219 124.90625 128.230469 124.09375 128.230469 C 123.28125 128.230469 122.625 127.574219 122.625 126.761719 C 122.625 125.949219 123.28125 125.292969 124.09375 125.292969 C 124.90625 125.292969 125.5625 125.949219 125.5625 126.761719 "/>
</g>
</svg>
