<?xml version="1.0" encoding="UTF-8"?>
<svg xmlns="http://www.w3.org/2000/svg" xmlns:xlink="http://www.w3.org/1999/xlink" width="200px" height="200px" viewBox="0 0 200 200" version="1.1">
<defs>
<linearGradient id="linear0" gradientUnits="userSpaceOnUse" x1="22.034" y1="9.773" x2="17.118" y2="14.842" gradientTransform="matrix(6.107328,0,0,6.107328,1.775,-20.698438)">
<stop offset="0.176" style="stop-color:rgb(0%,32.156863%,80%);stop-opacity:1;"/>
<stop offset="1" style="stop-color:rgb(14.901961%,51.764706%,100%);stop-opacity:1;"/>
</linearGradient>
<linearGradient id="linear1" gradientUnits="userSpaceOnUse" x1="16.641" y1="15.564" x2="10.957" y2="21.094" gradientTransform="matrix(6.107328,0,0,6.107328,1.775,-20.698438)">
<stop offset="0.176" style="stop-color:rgb(0%,32.156863%,80%);stop-opacity:1;"/>
<stop offset="1" style="stop-color:rgb(14.901961%,51.764706%,100%);stop-opacity:1;"/>
</linearGradient>
</defs>
<g id="surface1">
<path style=" stroke:none;fill-rule:nonzero;fill:rgb(14.901961%,51.764706%,100%);fill-opacity:1;" d="M 166.703125 3.730469 L 96.140625 3.730469 C 96.140625 21.320312 110.382812 35.558594 127.964844 35.558594 L 140.949219 35.558594 L 140.949219 48.121094 C 140.949219 65.710938 155.1875 79.949219 172.777344 79.949219 L 172.777344 9.800781 C 172.773438 6.449219 170.058594 3.730469 166.703125 3.730469 Z M 166.703125 3.730469 "/>
<path style=" stroke:none;fill-rule:nonzero;fill:url(#linear0);" d="M 131.738281 38.910156 L 61.175781 38.910156 C 61.175781 56.5 75.410156 70.734375 93 70.734375 L 105.980469 70.734375 L 105.980469 83.300781 C 105.980469 100.890625 120.21875 115.132812 137.8125 115.132812 L 137.8125 44.984375 C 137.808594 41.628906 135.089844 38.914062 131.738281 38.910156 Z M 131.738281 38.910156 "/>
<path style=" stroke:none;fill-rule:nonzero;fill:url(#linear1);" d="M 96.773438 74.085938 L 26.203125 74.085938 C 26.203125 91.675781 40.441406 105.914062 58.03125 105.914062 L 71.015625 105.914062 L 71.015625 118.480469 C 71.015625 136.066406 85.253906 150.304688 102.84375 150.304688 L 102.84375 80.15625 C 102.839844 76.804688 100.125 74.085938 96.773438 74.085938 Z M 96.773438 74.085938 "/>
<path style=" stroke:none;fill-rule:nonzero;fill:rgb(14.509804%,21.960784%,34.509804%);fill-opacity:1;" d="M 71.875 158.191406 L 77.242188 158.191406 L 77.242188 184.722656 C 77.242188 191.722656 74.046875 196.605469 66.636719 196.605469 C 63.855469 196.605469 61.675781 196.140625 60.179688 195.617188 L 60.179688 190.53125 C 61.816406 191.191406 63.789062 191.523438 65.757812 191.523438 C 70.3125 191.523438 71.875 188.886719 71.875 185.054688 Z M 87.097656 156.140625 C 89.203125 156.140625 90.699219 157.398438 90.699219 159.636719 C 90.699219 161.816406 89.203125 163.140625 87.097656 163.140625 C 84.992188 163.140625 83.496094 161.882812 83.496094 159.636719 C 83.496094 157.464844 84.992188 156.140625 87.097656 156.140625 Z M 84.449219 167.296875 L 89.613281 167.296875 L 89.613281 196.34375 L 84.449219 196.34375 Z M 102.386719 196.34375 L 97.359375 196.34375 L 97.359375 167.296875 L 102.386719 167.296875 L 102.386719 172.382812 C 104.15625 168.945312 107.148438 166.503906 112.988281 166.835938 L 112.988281 171.722656 C 106.398438 171.0625 102.386719 172.972656 102.386719 179.179688 Z M 137.121094 191.125 C 135.21875 194.957031 131.617188 196.9375 126.988281 196.9375 C 119.042969 196.9375 115.03125 190.398438 115.03125 181.816406 C 115.03125 173.632812 119.242188 166.703125 127.605469 166.703125 C 131.953125 166.703125 135.351562 168.617188 137.121094 172.382812 L 137.121094 167.296875 L 142.285156 167.296875 L 142.285156 196.34375 L 137.121094 196.34375 Z M 128.351562 192.316406 C 132.972656 192.316406 137.046875 189.476562 137.046875 183.007812 L 137.046875 180.699219 C 137.046875 174.230469 133.3125 171.390625 128.894531 171.390625 C 123.121094 171.390625 120.128906 175.085938 120.128906 181.816406 C 120.195312 188.816406 123.054688 192.316406 128.351562 192.316406 Z M 128.351562 192.316406 "/>
</g>
</svg>
