<?xml version="1.0" encoding="UTF-8"?>
<svg xmlns="http://www.w3.org/2000/svg" xmlns:xlink="http://www.w3.org/1999/xlink" width="200px" height="200px" viewBox="0 0 200 200" version="1.1">
<g id="surface1">
<path style=" stroke:none;fill-rule:nonzero;fill:rgb(41.176471%,41.176471%,41.176471%);fill-opacity:1;" d="M 49.238281 47.496094 L 145.023438 47.496094 C 147.617188 47.496094 149.722656 49.601562 149.722656 52.195312 C 149.722656 54.789062 147.617188 56.890625 145.023438 56.890625 L 49.238281 56.890625 C 46.644531 56.886719 44.546875 54.789062 44.542969 52.195312 C 44.542969 49.605469 46.644531 47.5 49.238281 47.496094 Z M 49.238281 47.496094 "/>
<path style=" stroke:none;fill-rule:nonzero;fill:rgb(0%,62.352941%,89.019608%);fill-opacity:1;" d="M 50.074219 38 L 69.328125 38 L 69.328125 42.445312 L 50.074219 42.445312 Z M 50.074219 38 "/>
<path style=" stroke:none;fill-rule:nonzero;fill:rgb(78.039216%,82.745098%,0.784314%);fill-opacity:1;" d="M 75.261719 38 L 94.519531 38 L 94.519531 42.445312 L 75.261719 42.445312 Z M 75.261719 38 "/>
<path style=" stroke:none;fill-rule:nonzero;fill:rgb(94.117647%,49.411765%,8.627451%);fill-opacity:1;" d="M 100.109375 38 L 119.371094 38 L 119.371094 42.445312 L 100.109375 42.445312 Z M 100.109375 38 "/>
<path style=" stroke:none;fill-rule:nonzero;fill:rgb(87.45098%,15.686275%,8.235294%);fill-opacity:1;" d="M 124.859375 38 L 144.117188 38 L 144.117188 42.445312 L 124.859375 42.445312 Z M 124.859375 61.78125 L 144.117188 61.78125 L 144.117188 94.335938 L 124.859375 94.335938 Z M 124.859375 61.78125 "/>
<path style=" stroke:none;fill-rule:nonzero;fill:rgb(94.117647%,49.411765%,8.627451%);fill-opacity:1;" d="M 100.109375 61.78125 L 119.410156 61.78125 L 119.410156 114.667969 L 100.109375 114.667969 Z M 100.109375 61.78125 "/>
<path style=" stroke:none;fill-rule:nonzero;fill:rgb(78.039216%,82.745098%,0.784314%);fill-opacity:1;" d="M 75.261719 61.78125 L 94.519531 61.78125 L 94.519531 140.996094 L 75.261719 140.996094 Z M 75.261719 61.78125 "/>
<path style=" stroke:none;fill-rule:nonzero;fill:rgb(0%,62.352941%,89.019608%);fill-opacity:1;" d="M 50.074219 61.78125 L 69.328125 61.78125 L 69.328125 158.332031 L 50.074219 158.332031 Z M 50.074219 61.78125 "/>
</g>
</svg>
