<?xml version="1.0" encoding="UTF-8"?>
<svg xmlns="http://www.w3.org/2000/svg" xmlns:xlink="http://www.w3.org/1999/xlink" width="200px" height="200px" viewBox="0 0 200 200" version="1.1">
<defs>
<linearGradient id="linear0" gradientUnits="userSpaceOnUse" x1="0.12959" y1="0.12039" x2="0.79639" y2="0.78201" gradientTransform="matrix(148.460938,0,0,148.859375,0.722656,0.0546875)">
<stop offset="0" style="stop-color:rgb(21.960784%,49.411765%,72.156863%);stop-opacity:1;"/>
<stop offset="1" style="stop-color:rgb(21.176471%,41.176471%,58.039216%);stop-opacity:1;"/>
</linearGradient>
<linearGradient id="linear1" gradientUnits="userSpaceOnUse" x1="0.19128" y1="0.20579" x2="0.90742" y2="0.88429" gradientTransform="matrix(148.460938,0,0,148.859375,52.558594,50.457031)">
<stop offset="0" style="stop-color:rgb(100%,87.843137%,32.156863%);stop-opacity:1;"/>
<stop offset="1" style="stop-color:rgb(100%,76.470588%,19.215686%);stop-opacity:1;"/>
</linearGradient>
</defs>
<g id="surface1">
<path style=" stroke:none;fill-rule:nonzero;fill:url(#linear0);" d="M 100.148438 0.0546875 C 49.300781 0.0546875 52.476562 22.109375 52.476562 22.109375 L 52.53125 44.953125 L 101.054688 44.953125 L 101.054688 51.8125 L 33.257812 51.8125 C 33.257812 51.8125 0.722656 48.121094 0.722656 99.425781 C 0.722656 150.734375 29.121094 148.914062 29.121094 148.914062 L 46.070312 148.914062 L 46.070312 125.105469 C 46.070312 125.105469 45.15625 96.707031 74.015625 96.707031 L 122.144531 96.707031 C 122.144531 96.707031 149.183594 97.144531 149.183594 70.574219 L 149.183594 26.644531 C 149.183594 26.644531 153.289062 0.0546875 100.148438 0.0546875 Z M 73.394531 15.417969 C 75.710938 15.417969 77.929688 16.335938 79.570312 17.972656 C 81.207031 19.613281 82.125 21.832031 82.125 24.148438 C 82.125 26.464844 81.207031 28.6875 79.570312 30.324219 C 77.929688 31.960938 75.710938 32.878906 73.394531 32.878906 C 71.078125 32.878906 68.855469 31.960938 67.21875 30.324219 C 65.582031 28.6875 64.664062 26.464844 64.664062 24.148438 C 64.664062 21.832031 65.582031 19.613281 67.21875 17.972656 C 68.855469 16.335938 71.078125 15.417969 73.394531 15.417969 Z M 73.394531 15.417969 "/>
<path style=" stroke:none;fill-rule:nonzero;fill:url(#linear1);" d="M 101.59375 199.316406 C 152.441406 199.316406 149.265625 177.261719 149.265625 177.261719 L 149.210938 154.417969 L 100.6875 154.417969 L 100.6875 147.558594 L 168.484375 147.558594 C 168.484375 147.558594 201.019531 151.25 201.019531 99.941406 C 201.019531 48.636719 172.621094 50.457031 172.621094 50.457031 L 155.671875 50.457031 L 155.671875 74.261719 C 155.671875 74.261719 156.585938 102.664062 127.726562 102.664062 L 79.597656 102.664062 C 79.597656 102.664062 52.558594 102.226562 52.558594 128.796875 L 52.558594 172.730469 C 52.558594 172.730469 48.453125 199.316406 101.59375 199.316406 Z M 128.351562 183.953125 C 126.035156 183.953125 123.8125 183.035156 122.175781 181.398438 C 120.539062 179.761719 119.617188 177.539062 119.621094 175.222656 C 119.617188 172.90625 120.535156 170.6875 122.175781 169.046875 C 123.8125 167.410156 126.035156 166.492188 128.351562 166.492188 C 130.664062 166.492188 132.886719 167.410156 134.523438 169.046875 C 136.164062 170.683594 137.082031 172.90625 137.078125 175.222656 C 137.082031 177.539062 136.164062 179.761719 134.523438 181.398438 C 132.886719 183.035156 130.664062 183.953125 128.351562 183.953125 Z M 128.351562 183.953125 "/>
</g>
</svg>
