<?xml version="1.0" encoding="UTF-8"?>
<svg xmlns="http://www.w3.org/2000/svg" xmlns:xlink="http://www.w3.org/1999/xlink" width="200px" height="200px" viewBox="0 0 200 200" version="1.1">
<g id="surface1">
<path style="fill-rule:evenodd;fill:rgb(68.627451%,68.627451%,87.058824%);fill-opacity:1;stroke-width:0.87;stroke-linecap:butt;stroke-linejoin:round;stroke:rgb(0%,0%,0%);stroke-opacity:1;stroke-miterlimit:4;" d="M 12.900391 58.300781 L 43.400391 87.300781 L 88.5 66.199219 L 49.800781 48.099609 Z M 12.900391 58.300781 " transform="matrix(2,0,0,2,0,0)"/>
<path style="fill-rule:evenodd;fill:rgb(20.784314%,20.784314%,39.215686%);fill-opacity:1;stroke-width:0.87;stroke-linecap:butt;stroke-linejoin:round;stroke:rgb(0%,0%,0%);stroke-opacity:1;stroke-miterlimit:4;" d="M 11.5 18.5 L 12.900391 58.300781 L 49.800781 48.099609 L 48.599609 14.699219 Z M 11.5 18.5 " transform="matrix(2,0,0,2,0,0)"/>
<path style="fill-rule:evenodd;fill:rgb(91.372549%,91.372549%,100%);fill-opacity:1;stroke-width:0.87;stroke-linecap:butt;stroke-linejoin:round;stroke:rgb(0%,0%,0%);stroke-opacity:1;stroke-miterlimit:4;" d="M 48.599609 14.699219 L 86.900391 19.099609 L 88.5 66.199219 L 49.800781 48.099609 Z M 48.599609 14.699219 " transform="matrix(2,0,0,2,0,0)"/>
<path style="fill-rule:evenodd;fill:rgb(9.803922%,68.235294%,100%);fill-opacity:1;stroke-width:0.87;stroke-linecap:butt;stroke-linejoin:round;stroke:rgb(0%,0%,0%);stroke-opacity:1;stroke-miterlimit:4;" d="M 11.5 18.5 L 41.199219 26.199219 L 86.900391 19.099609 L 48.599609 14.699219 Z M 11.5 18.5 " transform="matrix(2,0,0,2,0,0)"/>
<path style="fill-rule:evenodd;fill:rgb(0%,51.764706%,78.431373%);fill-opacity:1;stroke-width:0.87;stroke-linecap:butt;stroke-linejoin:round;stroke:rgb(0%,0%,0%);stroke-opacity:1;stroke-miterlimit:4;" d="M 41.199219 26.199219 L 43.400391 87.300781 L 88.5 66.199219 L 86.900391 19.099609 Z M 41.199219 26.199219 " transform="matrix(2,0,0,2,0,0)"/>
<path style="fill-rule:evenodd;fill:rgb(9.803922%,68.235294%,100%);fill-opacity:1;stroke-width:0.87;stroke-linecap:butt;stroke-linejoin:round;stroke:rgb(0%,0%,0%);stroke-opacity:1;stroke-miterlimit:4;" d="M 11.5 18.5 L 41.199219 26.199219 L 43.400391 87.300781 L 12.900391 58.300781 Z M 11.5 18.5 " transform="matrix(2,0,0,2,0,0)"/>
<path style="fill:none;stroke-width:1.31;stroke-linecap:butt;stroke-linejoin:miter;stroke:rgb(0%,0%,0%);stroke-opacity:1;stroke-miterlimit:5.58;" d="M 14.5 30.199219 C 14.5 30.199219 18.400391 22.199219 26.400391 30.400391 C 30.199219 34.400391 33 38.900391 36.599609 32.900391 " transform="matrix(2,0,0,2,0,0)"/>
<path style="fill:none;stroke-width:1.31;stroke-linecap:butt;stroke-linejoin:miter;stroke:rgb(0%,0%,0%);stroke-opacity:1;stroke-miterlimit:5.58;" d="M 14.5 35.5 C 14.5 35.5 18.400391 27.5 26.400391 35.699219 C 30.199219 39.699219 33 44.099609 36.599609 38.199219 " transform="matrix(2,0,0,2,0,0)"/>
<path style="fill:none;stroke-width:1.31;stroke-linecap:butt;stroke-linejoin:miter;stroke:rgb(0%,0%,0%);stroke-opacity:1;stroke-miterlimit:5.58;" d="M 14.5 40.699219 C 14.5 40.699219 18.400391 32.699219 26.400391 40.900391 C 30.199219 44.900391 33 49.300781 36.599609 43.400391 " transform="matrix(2,0,0,2,0,0)"/>
</g>
</svg>
