<?xml version="1.0" encoding="UTF-8"?>
<svg xmlns="http://www.w3.org/2000/svg" xmlns:xlink="http://www.w3.org/1999/xlink" width="200px" height="200px" viewBox="0 0 200 200" version="1.1">
<defs>
<clipPath id="clip1">
  <path d="M 46.875 0 L 153.125 0 C 179.011719 0 200 20.988281 200 46.875 L 200 153.125 C 200 179.011719 179.011719 200 153.125 200 L 46.875 200 C 20.988281 200 0 179.011719 0 153.125 L 0 46.875 C 0 20.988281 20.988281 0 46.875 0 Z M 46.875 0 "/>
</clipPath>
</defs>
<g id="surface1">
<g clip-path="url(#clip1)" clip-rule="nonzero">
<path style=" stroke:none;fill-rule:nonzero;fill:rgb(34.901961%,72.54902%,26.27451%);fill-opacity:1;" d="M 46.875 0 L 153.125 0 C 179.011719 0 200 20.988281 200 46.875 L 200 153.125 C 200 179.011719 179.011719 200 153.125 200 L 46.875 200 C 20.988281 200 0 179.011719 0 153.125 L 0 46.875 C 0 20.988281 20.988281 0 46.875 0 Z M 46.875 0 "/>
<path style=" stroke:none;fill-rule:evenodd;fill:rgb(100%,100%,100%);fill-opacity:1;" d="M 182.636719 -4.6875 L 200 -4.6875 L 200 203.90625 L 198.386719 203.90625 C 198.792969 203.90625 199.183594 203.746094 199.472656 203.457031 C 199.761719 203.171875 199.925781 202.78125 199.921875 202.371094 L 199.921875 26.355469 C 200.175781 25.609375 199.777344 24.800781 199.03125 24.546875 C 198.285156 24.292969 197.472656 24.691406 197.21875 25.4375 L 132.625 97.769531 C 132.253906 98.171875 131.730469 98.398438 131.179688 98.398438 C 130.632812 98.398438 130.109375 98.171875 129.734375 97.769531 L 96.761719 63.839844 C 96.1875 63.125 96.1875 62.105469 96.761719 61.386719 L 107.652344 47.460938 C 108.019531 46.945312 108.617188 46.640625 109.25 46.640625 C 109.882812 46.640625 110.480469 46.945312 110.851562 47.460938 L 129.304688 67.828125 C 129.679688 68.273438 130.230469 68.53125 130.8125 68.53125 C 131.394531 68.53125 131.945312 68.273438 132.320312 67.828125 L 183.746094 -2.480469 C 183.886719 -2.6875 183.972656 -2.929688 183.992188 -3.179688 C 184.023438 -3.691406 183.777344 -4.183594 183.347656 -4.460938 C 183.136719 -4.597656 182.890625 -4.675781 182.636719 -4.6875 Z M 1.539062 -4.6875 L 0 -4.6875 L 0 -3.152344 C 0 -3.558594 0.160156 -3.949219 0.449219 -4.238281 C 0.738281 -4.527344 1.128906 -4.6875 1.539062 -4.6875 Z M 0 202.371094 L 0 203.90625 L 1.539062 203.90625 C 1.128906 203.90625 0.738281 203.746094 0.449219 203.457031 C 0.164062 203.167969 0 202.78125 0 202.371094 Z M 132.007812 127.375 C 128.191406 127.257812 124.46875 128.574219 121.578125 131.0625 C 118.695312 133.542969 116.851562 137.019531 116.421875 140.796875 C 116.382812 140.945312 116.417969 141.105469 116.511719 141.222656 C 116.609375 141.34375 116.757812 141.410156 116.910156 141.40625 L 147.164062 141.40625 C 147.304688 141.40625 147.4375 141.347656 147.53125 141.242188 C 147.625 141.140625 147.671875 141 147.652344 140.859375 C 147.351562 137.011719 145.542969 133.441406 142.617188 130.921875 C 139.679688 128.394531 135.871094 127.121094 132.007812 127.375 Z M 20.421875 168.753906 C 30.152344 177.273438 42.816406 181.675781 55.734375 181.023438 L 55.671875 181.023438 C 78.984375 181.023438 90.242188 169.121094 90.242188 153.535156 C 90.242188 133.992188 72.054688 129.636719 57.710938 126.203125 C 48.371094 123.96875 40.660156 122.121094 40.660156 116.726562 C 40.660156 111.574219 45.089844 108.074219 52.964844 108.074219 C 61.53125 107.996094 69.871094 110.851562 76.585938 116.175781 C 76.988281 116.515625 77.511719 116.679688 78.035156 116.621094 C 78.5625 116.5625 79.035156 116.289062 79.355469 115.867188 L 86.921875 105.375 C 87.628906 104.640625 87.628906 103.472656 86.921875 102.738281 C 77.8125 95.359375 66.339844 91.523438 54.625 91.941406 C 34.203125 91.941406 21.898438 103.84375 21.898438 118.136719 C 21.898438 137.359375 39.398438 141.503906 53.628906 144.871094 C 63.382812 147.183594 71.601562 149.128906 71.601562 155.316406 C 71.601562 160.222656 66.683594 164.886719 56.59375 164.886719 C 47.019531 164.917969 37.789062 161.324219 30.757812 154.824219 C 30.089844 154.417969 29.238281 154.460938 28.613281 154.933594 C 28.410156 155.085938 28.238281 155.28125 28.113281 155.5 L 20.421875 166.238281 C 19.789062 166.953125 19.789062 168.035156 20.421875 168.753906 Z M 164.007812 151.8125 C 164.09375 151.597656 164.128906 151.371094 164.121094 151.144531 L 164.058594 149.179688 C 164.058594 128.261719 151.082031 113.964844 131.949219 113.964844 C 127.535156 113.890625 123.152344 114.707031 119.0625 116.367188 C 114.972656 118.027344 111.265625 120.496094 108.160156 123.628906 C 105.054688 126.757812 102.617188 130.484375 100.996094 134.582031 C 99.375 138.679688 98.605469 143.0625 98.730469 147.464844 C 98.554688 151.972656 99.320312 156.472656 100.988281 160.667969 C 102.65625 164.867188 105.183594 168.667969 108.40625 171.832031 C 111.636719 175 115.488281 177.457031 119.722656 179.046875 C 123.957031 180.640625 128.476562 181.335938 132.996094 181.082031 C 142.039062 181.3125 150.902344 178.550781 158.214844 173.230469 C 158.90625 172.679688 159.0625 171.699219 158.585938 170.960938 L 153.050781 162.921875 C 152.652344 162.316406 151.90625 162.035156 151.207031 162.230469 C 150.980469 162.292969 150.769531 162.40625 150.589844 162.554688 C 145.964844 165.796875 140.484375 167.589844 134.839844 167.710938 C 130.539062 168.0625 126.261719 166.800781 122.84375 164.164062 C 119.429688 161.535156 117.125 157.722656 116.386719 153.476562 C 116.367188 153.328125 116.410156 153.179688 116.503906 153.066406 C 116.597656 152.949219 116.730469 152.878906 116.878906 152.863281 L 162.398438 152.863281 C 162.628906 152.871094 162.855469 152.832031 163.070312 152.75 C 163.5 152.582031 163.839844 152.242188 164.007812 151.8125 Z M 164.007812 151.8125 "/>
</g>
</g>
</svg>
